<?xml version="1.0" encoding="UTF-8" standalone="no"?>
<svg
   xmlns:dc="http://purl.org/dc/elements/1.1/"
   xmlns:cc="http://creativecommons.org/ns#"
   xmlns:rdf="http://www.w3.org/1999/02/22-rdf-syntax-ns#"
   xmlns:svg="http://www.w3.org/2000/svg"
   xmlns="http://www.w3.org/2000/svg"
   xmlns:sodipodi="http://sodipodi.sourceforge.net/DTD/sodipodi-0.dtd"
   xmlns:inkscape="http://www.inkscape.org/namespaces/inkscape"
   width="420"
   height="420"
   viewBox="0 0 111.125 111.12501"
   version="1.1"
   id="svg8"
   inkscape:version="1.0.2-2 (e86c870879, 2021-01-15)"
   sodipodi:docname="Hiragana letter Bu.svg">
  <defs
     id="defs2" />
  <sodipodi:namedview
     id="base"
     pagecolor="#ffffff"
     bordercolor="#666666"
     borderopacity="1.0"
     inkscape:pageopacity="0.0"
     inkscape:pageshadow="2"
     inkscape:zoom="0.98994949"
     inkscape:cx="345.76714"
     inkscape:cy="230.41447"
     inkscape:document-units="px"
     inkscape:current-layer="layer1"
     showgrid="false"
     units="px"
     showguides="true"
     inkscape:guide-bbox="true"
     inkscape:snap-center="true"
     inkscape:snap-object-midpoints="false"
     inkscape:window-width="1366"
     inkscape:window-height="705"
     inkscape:window-x="-8"
     inkscape:window-y="-8"
     inkscape:window-maximized="1"
     inkscape:document-rotation="0"
     inkscape:snap-bbox="true"
     inkscape:bbox-paths="true"
     inkscape:bbox-nodes="true" />
  <metadata
     id="metadata5">
    <rdf:RDF>
      <cc:Work
         rdf:about="">
        <dc:format>image/svg+xml</dc:format>
        <dc:type
           rdf:resource="http://purl.org/dc/dcmitype/StillImage" />
        <dc:title />
      </cc:Work>
    </rdf:RDF>
  </metadata>
  <g
     inkscape:label="Layer 1"
     inkscape:groupmode="layer"
     id="layer1"
     transform="translate(0,-185.87499)">
    <path
       d="m 75.829525,213.12717 c 4.762485,3.38666 7.725809,6.87915 9.948302,9.52497 2.11666,2.85749 3.280823,5.18582 4.868318,5.18582 1.693328,0.10583 2.963324,-0.9525 2.963324,-2.64583 0,-2.22249 -1.269996,-4.12748 -3.809988,-6.56164 -2.751658,-2.53999 -6.561646,-5.07999 -12.382461,-7.40831 z m -13.123292,55.98566 c 0,4.55082 -2.963324,7.30248 -9.842469,7.30248 -6.773312,0 -14.287455,-2.43416 -20.637435,-4.97416 8.995805,-7.61997 16.827447,-13.22912 24.976588,-15.98078 4.021654,5.39748 5.503316,9.52497 5.503316,13.65246 z M 43.867959,206.45969 c 7.831642,3.06916 14.393288,7.09081 16.827447,11.64163 1.05833,1.905 0.952497,2.85749 -1.05833,4.23332 -4.23332,2.85749 -15.769117,7.93748 -15.769117,14.07579 0,5.18582 6.244147,10.9008 11.006632,16.29828 -10.371634,3.59833 -19.790771,10.5833 -30.162405,17.77995 -5.714982,3.80999 -7.302477,4.65665 -8.889972,4.65665 -2.222493,0 -4.762486,-3.49249 -5.714983,-7.72581 l -2.1166598,0.10583 c -0.423332,1.69333 -0.634998,3.28083 -0.634998,5.07999 0,5.18581 6.6674798,11.2183 9.9483028,11.2183 3.17499,0 4.550819,-3.38666 8.46664,-6.87915 l 3.809988,-3.38666 c 5.29165,2.64583 10.054135,4.44499 14.075789,5.92665 4.762485,1.79916 8.889972,2.64583 12.911626,2.64583 7.619976,0 13.017459,-3.49249 13.017459,-10.9008 0,-5.92665 -1.904994,-11.32413 -6.667479,-17.14495 1.693328,-0.3175 3.386656,-0.42333 5.079984,-0.42333 12.69996,0 21.1666,8.57247 24.870755,17.99161 1.269996,3.28082 2.645825,6.03248 4.762485,6.03248 2.434157,0 3.492487,-1.90499 3.492487,-4.12749 0,-2.96332 -1.05833,-5.92664 -3.809986,-9.9483 -4.444986,-6.66748 -14.922453,-13.44079 -28.257411,-13.44079 -3.069157,0 -6.032481,0.3175 -8.889972,0.9525 -4.762485,-4.55082 -12.170795,-10.47747 -12.170795,-14.49912 0,-4.55082 8.995805,-8.25498 13.440791,-9.20747 4.23332,-0.84667 8.995805,-0.10584 8.995805,-3.38666 0,-5.92665 -4.656652,-11.5358 -10.689133,-14.92245 -4.444986,-2.75166 -9.313304,-4.02166 -14.710787,-5.18582 z M 85.88366,205.1897 c 4.974151,3.38665 7.619976,6.13831 9.948302,8.88997 2.434159,2.64582 3.492489,5.07998 5.185818,5.07998 1.48166,0 2.75165,-0.84666 2.75165,-2.75166 0,-2.22249 -1.37582,-4.33915 -4.021647,-6.66747 -2.751658,-2.2225 -6.667479,-4.44499 -12.488294,-6.34998 z"
       style="font-style:normal;font-variant:normal;font-weight:normal;font-stretch:normal;font-size:105.833px;line-height:100%;font-family:'Noto Serif CJK JP';-inkscape-font-specification:'Noto Serif CJK JP';text-align:center;letter-spacing:0px;word-spacing:0px;text-anchor:middle;fill:#000000;fill-opacity:1;stroke:none;stroke-width:0.264583px;stroke-linecap:butt;stroke-linejoin:miter;stroke-opacity:1"
       id="path9" />
  </g>
</svg>
