<?xml version="1.0" encoding="UTF-8" standalone="no"?>
<svg
   xmlns:dc="http://purl.org/dc/elements/1.1/"
   xmlns:cc="http://creativecommons.org/ns#"
   xmlns:rdf="http://www.w3.org/1999/02/22-rdf-syntax-ns#"
   xmlns:svg="http://www.w3.org/2000/svg"
   xmlns="http://www.w3.org/2000/svg"
   xmlns:sodipodi="http://sodipodi.sourceforge.net/DTD/sodipodi-0.dtd"
   xmlns:inkscape="http://www.inkscape.org/namespaces/inkscape"
   width="420"
   height="420"
   viewBox="0 0 111.125 111.12501"
   version="1.1"
   id="svg8"
   inkscape:version="1.0.2-2 (e86c870879, 2021-01-15)"
   sodipodi:docname="Hiragana letter Ga.svg">
  <defs
     id="defs2" />
  <sodipodi:namedview
     id="base"
     pagecolor="#ffffff"
     bordercolor="#666666"
     borderopacity="1.0"
     inkscape:pageopacity="0.0"
     inkscape:pageshadow="2"
     inkscape:zoom="0.98994949"
     inkscape:cx="345.76714"
     inkscape:cy="230.41447"
     inkscape:document-units="px"
     inkscape:current-layer="layer1"
     showgrid="false"
     units="px"
     showguides="true"
     inkscape:guide-bbox="true"
     inkscape:snap-center="true"
     inkscape:snap-object-midpoints="false"
     inkscape:window-width="1366"
     inkscape:window-height="705"
     inkscape:window-x="-8"
     inkscape:window-y="-8"
     inkscape:window-maximized="1"
     inkscape:document-rotation="0"
     inkscape:snap-bbox="true"
     inkscape:bbox-paths="true"
     inkscape:bbox-nodes="true" />
  <metadata
     id="metadata5">
    <rdf:RDF>
      <cc:Work
         rdf:about="">
        <dc:format>image/svg+xml</dc:format>
        <dc:type
           rdf:resource="http://purl.org/dc/dcmitype/StillImage" />
        <dc:title />
      </cc:Work>
    </rdf:RDF>
  </metadata>
  <g
     inkscape:label="Layer 1"
     inkscape:groupmode="layer"
     id="layer1"
     transform="translate(0,-185.87499)">
    <path
       d="m 75.882438,208.89385 c 4.656652,3.28082 7.619976,6.66748 9.736636,9.31331 2.010827,2.64582 3.280823,5.07998 4.974151,5.07998 1.481662,0 2.539992,-1.05833 2.539992,-2.85749 0,-2.01083 -1.05833,-3.80999 -3.704155,-6.24415 -2.645825,-2.53999 -6.667479,-4.86832 -12.064962,-7.09081 z m -43.497363,-2.75166 c 2.539992,0.21167 6.455813,0.74083 8.043308,1.5875 1.375829,0.635 1.693328,1.48166 1.693328,2.75166 0,2.01082 -2.328326,8.88997 -5.503316,17.03911 -7.831642,1.69333 -17.356612,4.23332 -20.743268,4.23332 -3.069157,0 -3.809988,-3.38666 -4.974151,-6.24415 l -2.1166608,0.3175 c -0.529165,2.01083 -0.634998,4.44499 -0.211666,6.13832 0.8466645,3.38665 4.7624858,7.40831 7.5141438,7.40831 2.645825,0 4.127487,-1.16417 8.678306,-2.96333 2.11666,-0.84666 5.714982,-2.11666 9.630803,-3.38665 -2.539992,6.13831 -5.397483,12.38246 -7.937475,17.46244 -6.032481,11.42996 -10.689133,18.62661 -16.5099483,26.14075 -1.3758295,1.79916 -1.6933285,3.06916 -1.6933285,4.86832 0,2.43416 1.6933285,3.91582 3.1749908,3.91582 1.587495,0 2.751658,-0.74083 4.339153,-3.28082 4.550819,-6.66748 9.842469,-17.03912 15.663284,-28.78658 3.386656,-7.09081 6.984978,-15.13412 10.054135,-22.22493 3.598322,-0.9525 7.090811,-1.58749 9.52497,-1.58749 5.926648,0 7.725809,3.28082 7.725809,11.00663 0,12.06496 -3.915821,24.97659 -7.40831,30.37407 -2.751658,4.33915 -5.185817,5.50332 -8.46664,5.50332 -2.434159,0 -7.196644,-2.8575 -12.69996,-6.34998 l -1.269996,1.69332 c 5.926648,5.07999 6.667479,6.34998 7.40831,7.93748 1.375829,3.06916 2.11666,4.55082 5.609149,4.55082 5.397483,0 9.736636,-2.64583 12.805793,-6.66748 6.244147,-7.83164 10.054135,-22.64826 10.054135,-35.45406 0,-12.48829 -4.550819,-16.82744 -12.488294,-16.82744 -2.434159,0 -5.926648,0.42333 -8.784139,0.95249 2.010827,-4.65665 3.598322,-8.6783 4.656652,-11.21829 1.164163,-2.64583 3.280823,-3.80999 3.280823,-6.13832 0,-2.64582 -7.831642,-6.34998 -12.170795,-6.34998 -2.857491,0 -5.079984,0.635 -6.879145,1.37583 z m 39.369876,21.8016 c 6.879145,1.27 11.112465,4.12749 14.075789,8.25498 3.17499,4.44498 4.127487,9.10163 4.339153,11.85329 0.105833,2.75166 -0.211666,3.70416 -2.434159,4.55082 -2.857491,1.05833 -9.630803,2.43416 -13.546624,3.17499 l 0.634998,2.53999 c 3.598322,-0.42333 10.265801,-0.95249 12.488294,-0.52916 3.069157,0.635 2.857491,3.59832 5.926648,3.59832 3.069157,-0.10583 4.444986,-3.59832 4.444986,-7.83164 0,-8.14914 -2.645825,-15.13412 -6.561646,-19.36744 -4.23332,-4.76249 -9.52497,-7.51414 -18.097443,-8.78414 z m 13.75829,-25.82325 c 4.868318,3.28082 7.40831,5.82081 9.842469,8.46664 2.328326,2.64582 3.386656,5.07998 5.07998,5.07998 1.58749,0 2.43416,-0.84666 2.43416,-2.64582 0,-2.22249 -1.05833,-4.23332 -3.915818,-6.56165 -2.539992,-2.22249 -6.667479,-4.23332 -12.064962,-6.24414 z"
       style="font-style:normal;font-variant:normal;font-weight:normal;font-stretch:normal;font-size:105.833px;line-height:100%;font-family:'Noto Serif CJK JP';-inkscape-font-specification:'Noto Serif CJK JP';text-align:center;letter-spacing:0px;word-spacing:0px;text-anchor:middle;fill:#000000;fill-opacity:1;stroke:none;stroke-width:0.264583px;stroke-linecap:butt;stroke-linejoin:miter;stroke-opacity:1"
       id="path9" />
  </g>
</svg>
