<?xml version="1.0" encoding="UTF-8" standalone="no"?>
<svg
   xmlns:dc="http://purl.org/dc/elements/1.1/"
   xmlns:cc="http://creativecommons.org/ns#"
   xmlns:rdf="http://www.w3.org/1999/02/22-rdf-syntax-ns#"
   xmlns:svg="http://www.w3.org/2000/svg"
   xmlns="http://www.w3.org/2000/svg"
   xmlns:sodipodi="http://sodipodi.sourceforge.net/DTD/sodipodi-0.dtd"
   xmlns:inkscape="http://www.inkscape.org/namespaces/inkscape"
   width="420"
   height="420"
   viewBox="0 0 111.125 111.12501"
   version="1.1"
   id="svg8"
   inkscape:version="1.0.2-2 (e86c870879, 2021-01-15)"
   sodipodi:docname="Hiragana letter Gi.svg">
  <defs
     id="defs2" />
  <sodipodi:namedview
     id="base"
     pagecolor="#ffffff"
     bordercolor="#666666"
     borderopacity="1.0"
     inkscape:pageopacity="0.0"
     inkscape:pageshadow="2"
     inkscape:zoom="0.98994949"
     inkscape:cx="345.76714"
     inkscape:cy="230.41447"
     inkscape:document-units="px"
     inkscape:current-layer="layer1"
     showgrid="false"
     units="px"
     showguides="true"
     inkscape:guide-bbox="true"
     inkscape:snap-center="true"
     inkscape:snap-object-midpoints="false"
     inkscape:window-width="1366"
     inkscape:window-height="705"
     inkscape:window-x="-8"
     inkscape:window-y="-8"
     inkscape:window-maximized="1"
     inkscape:document-rotation="0"
     inkscape:snap-bbox="true"
     inkscape:bbox-paths="true"
     inkscape:bbox-nodes="true" />
  <metadata
     id="metadata5">
    <rdf:RDF>
      <cc:Work
         rdf:about="">
        <dc:format>image/svg+xml</dc:format>
        <dc:type
           rdf:resource="http://purl.org/dc/dcmitype/StillImage" />
        <dc:title />
      </cc:Work>
    </rdf:RDF>
  </metadata>
  <g
     inkscape:label="Layer 1"
     inkscape:groupmode="layer"
     id="layer1"
     transform="translate(0,-185.87499)">
    <path
       d="m 31.961741,204.02553 c 1.799161,-0.10583 3.598322,-0.21166 5.397483,-0.10583 3.280823,0.21167 4.23332,1.37583 5.079984,3.80999 1.05833,2.85749 2.010827,5.71498 3.17499,8.57247 -5.29165,1.27 -11.006632,2.22249 -14.81662,2.22249 -8.360807,0 -11.535797,-2.01082 -16.721614,-5.92664 l -1.481662,1.16416 c 5.503316,9.20747 11.324131,10.05413 18.626608,10.05413 5.079984,0 10.900799,-0.84666 16.404115,-2.22249 2.010827,4.97415 4.021654,9.6308 6.032481,13.75829 -6.773312,1.79916 -14.287455,2.96333 -21.907431,2.96333 -11.747463,0 -13.123292,-4.23332 -6.561646,-10.05414 l -1.799161,-1.58749 c -11.535797,8.0433 -7.302477,17.25077 7.514143,17.25077 9.313304,0 18.097443,-1.16416 25.611586,-2.96332 4.021654,7.51414 8.360807,12.91163 10.159968,15.55745 0.740831,1.05833 0.634998,1.37583 -0.740831,0.9525 -4.974151,-1.16416 -12.594127,-3.06916 -22.22493,-3.06916 -17.885777,0 -26.564083,8.36081 -26.564083,16.82745 0,12.38246 15.239952,16.82745 28.469077,16.82745 13.652457,0 20.214103,-1.69333 20.214103,-4.86832 0,-2.01083 -2.222493,-3.38666 -5.397483,-3.38666 -4.127487,0 -6.667479,1.16416 -14.604954,1.16416 -10.054135,0 -23.494926,-1.26999 -23.494926,-11.11246 0,-6.98498 8.46664,-11.74746 19.790771,-11.74746 8.678306,0 17.039113,2.85749 20.954934,4.76248 4.23332,2.11666 5.926648,4.02166 8.46664,4.02166 2.539992,0 4.339153,-4.55082 4.339153,-7.83165 0,-2.75165 -6.138314,-5.71498 -14.393288,-19.36744 8.043308,-2.22249 14.393288,-4.97415 18.309109,-7.30247 2.010827,-1.05833 2.434159,-2.2225 2.434159,-3.28083 0,-2.11666 -2.328326,-2.85749 -4.974151,-2.64582 -1.693328,0 -2.857491,1.48166 -9.630803,4.23332 -2.751658,1.16416 -5.926648,2.32833 -9.313304,3.38666 -2.539992,-4.97416 -4.339153,-9.52497 -5.714982,-13.65246 8.572473,-2.43416 15.87495,-5.39748 18.097443,-6.77331 1.587495,-1.05833 2.328326,-2.01083 2.328326,-3.06916 -0.105833,-2.01083 -2.857491,-2.53999 -5.29165,-2.53999 -1.693328,0 -5.820815,3.49249 -16.827447,6.77331 -1.05833,-4.12749 -1.693328,-8.36081 -2.328326,-11.74746 -0.529165,-2.96333 -4.550819,-3.80999 -8.360807,-3.80999 -3.17499,0 -5.609149,0.9525 -8.678306,2.75166 z m 39.899041,-0.74083 c 4.550819,3.28083 7.514143,6.56165 9.630803,9.20747 2.222493,2.75166 3.280823,5.18582 4.974151,5.18582 1.587495,0 2.539992,-0.9525 2.539992,-2.75166 0,-2.11666 -1.05833,-4.02165 -3.704155,-6.45581 -2.645825,-2.43416 -6.667479,-4.76249 -12.064962,-7.09081 z m 9.313304,-6.34998 c 4.868318,3.28083 7.40831,5.82082 9.736636,8.46664 2.328326,2.64583 3.386656,5.07999 5.18582,5.07999 1.48166,0 2.43416,-0.9525 2.43416,-2.64583 0,-2.22249 -1.16417,-4.23332 -4.02166,-6.56164 -2.53999,-2.2225 -6.561644,-4.23332 -12.06496,-6.13832 z"
       style="font-style:normal;font-variant:normal;font-weight:normal;font-stretch:normal;font-size:105.833px;line-height:100%;font-family:'Noto Serif CJK JP';-inkscape-font-specification:'Noto Serif CJK JP';text-align:center;letter-spacing:0px;word-spacing:0px;text-anchor:middle;fill:#000000;fill-opacity:1;stroke:none;stroke-width:0.264583px;stroke-linecap:butt;stroke-linejoin:miter;stroke-opacity:1"
       id="path9" />
  </g>
</svg>
