<?xml version="1.0" encoding="UTF-8" standalone="no"?>
<svg
   xmlns:dc="http://purl.org/dc/elements/1.1/"
   xmlns:cc="http://creativecommons.org/ns#"
   xmlns:rdf="http://www.w3.org/1999/02/22-rdf-syntax-ns#"
   xmlns:svg="http://www.w3.org/2000/svg"
   xmlns="http://www.w3.org/2000/svg"
   xmlns:sodipodi="http://sodipodi.sourceforge.net/DTD/sodipodi-0.dtd"
   xmlns:inkscape="http://www.inkscape.org/namespaces/inkscape"
   width="420"
   height="420"
   viewBox="0 0 111.125 111.12501"
   version="1.1"
   id="svg8"
   inkscape:version="1.0.2-2 (e86c870879, 2021-01-15)"
   sodipodi:docname="Hiragana letter Pi.svg">
  <defs
     id="defs2" />
  <sodipodi:namedview
     id="base"
     pagecolor="#ffffff"
     bordercolor="#666666"
     borderopacity="1.0"
     inkscape:pageopacity="0.0"
     inkscape:pageshadow="2"
     inkscape:zoom="0.98994949"
     inkscape:cx="345.76714"
     inkscape:cy="230.41447"
     inkscape:document-units="px"
     inkscape:current-layer="layer1"
     showgrid="false"
     units="px"
     showguides="true"
     inkscape:guide-bbox="true"
     inkscape:snap-center="true"
     inkscape:snap-object-midpoints="false"
     inkscape:window-width="1366"
     inkscape:window-height="705"
     inkscape:window-x="-8"
     inkscape:window-y="-8"
     inkscape:window-maximized="1"
     inkscape:document-rotation="0"
     inkscape:snap-bbox="true"
     inkscape:bbox-paths="true"
     inkscape:bbox-nodes="true" />
  <metadata
     id="metadata5">
    <rdf:RDF>
      <cc:Work
         rdf:about="">
        <dc:format>image/svg+xml</dc:format>
        <dc:type
           rdf:resource="http://purl.org/dc/dcmitype/StillImage" />
        <dc:title />
      </cc:Work>
    </rdf:RDF>
  </metadata>
  <g
     inkscape:label="Layer 1"
     inkscape:groupmode="layer"
     id="layer1"
     transform="translate(0,-185.87499)">
    <path
       d="m 87.947402,220.11215 c 6.24415,0 11.42996,-5.18582 11.42996,-11.5358 0,-6.24414 -5.18581,-11.32413 -11.42996,-11.32413 -6.34998,0 -11.429964,5.07999 -11.429964,11.32413 0,6.34998 5.079984,11.5358 11.429964,11.5358 z m 0,-19.36744 c 4.339153,0 7.83164,3.49249 7.83164,7.83164 0,4.44499 -3.492487,8.04331 -7.83164,8.04331 -4.444986,0 -7.937475,-3.59832 -7.937475,-8.04331 0,-4.33915 3.492489,-7.83164 7.937475,-7.83164 z m -65.298961,18.20328 c 3.17499,0.21166 6.032481,0 8.46664,-0.42334 -10.689133,11.74747 -19.261606,26.45825 -19.261606,42.12154 0,19.36744 13.440791,26.35242 26.669916,26.35242 21.1666,0 29.421574,-14.92246 31.009069,-27.41075 0.952497,-7.72581 0.952497,-14.71079 0.952497,-18.73244 0,-3.17499 0.846664,-3.28083 1.904994,-0.3175 3.280823,8.57247 7.302477,14.18162 10.900799,18.09744 1.693328,2.11666 3.809988,3.28082 5.397483,3.28082 1.799161,0 2.539992,-1.69332 2.539992,-3.59832 -0.105833,-3.17499 -1.481662,-4.76248 -3.17499,-6.13831 -4.444986,-4.23332 -12.594127,-11.64163 -14.81662,-22.85993 -1.05833,-5.60915 -1.269996,-12.27663 -1.269996,-17.67411 0,-2.96332 -1.481662,-5.18582 -4.127487,-5.18582 -2.010827,0 -3.704155,1.905 -3.704155,5.50332 0,2.85749 0.952497,7.61997 1.481662,10.37163 1.164163,5.92665 1.375829,11.11247 1.375829,18.09745 0,22.22493 -7.937475,39.36987 -28.892409,39.36987 -11.112465,0 -20.954934,-6.45581 -20.954934,-19.68494 0,-18.30911 12.488294,-34.28989 19.04994,-39.7932 3.280823,-2.96333 6.879145,-4.02166 9.419137,-5.07999 2.010827,-0.84666 2.539992,-1.69333 2.539992,-2.85749 0,-1.58749 -3.069157,-4.33915 -5.820815,-4.33915 -1.269996,0 -2.11666,0.74083 -5.397483,2.22249 -3.809988,1.79916 -8.572473,3.06916 -13.969956,3.06916 -3.492489,0 -6.667479,-1.16417 -10.054135,-2.96333 l -1.164163,1.69333 c 3.809988,4.97415 6.667479,6.45581 10.900799,6.87915 z"
       style="font-style:normal;font-variant:normal;font-weight:normal;font-stretch:normal;font-size:105.833px;line-height:100%;font-family:'Noto Serif CJK JP';-inkscape-font-specification:'Noto Serif CJK JP';text-align:center;letter-spacing:0px;word-spacing:0px;text-anchor:middle;fill:#000000;fill-opacity:1;stroke:none;stroke-width:0.264583px;stroke-linecap:butt;stroke-linejoin:miter;stroke-opacity:1"
       id="path9" />
  </g>
</svg>
