<?xml version="1.0" encoding="UTF-8" standalone="no"?>
<!-- Created with Inkscape (http://www.inkscape.org/) -->

<svg
   xmlns:dc="http://purl.org/dc/elements/1.1/"
   xmlns:cc="http://creativecommons.org/ns#"
   xmlns:rdf="http://www.w3.org/1999/02/22-rdf-syntax-ns#"
   xmlns:svg="http://www.w3.org/2000/svg"
   xmlns="http://www.w3.org/2000/svg"
   xmlns:sodipodi="http://sodipodi.sourceforge.net/DTD/sodipodi-0.dtd"
   xmlns:inkscape="http://www.inkscape.org/namespaces/inkscape"
   width="500"
   height="500"
   viewBox="0 0 132.29166 132.29167"
   version="1.1"
   id="svg8"
   inkscape:version="0.92.4 (5da689c313, 2019-01-14)"
   sodipodi:docname="Japanese_Hirigana_kyokashotai_WI.svg">
  <defs
     id="defs2" />
  <sodipodi:namedview
     id="base"
     pagecolor="#ffffff"
     bordercolor="#666666"
     borderopacity="1.0"
     inkscape:pageopacity="0.0"
     inkscape:pageshadow="2"
     inkscape:zoom="0.35"
     inkscape:cx="400"
     inkscape:cy="560"
     inkscape:document-units="mm"
     inkscape:current-layer="layer1"
     showgrid="false"
     units="px"
     inkscape:window-width="1440"
     inkscape:window-height="837"
     inkscape:window-x="-8"
     inkscape:window-y="-8"
     inkscape:window-maximized="1" />
  <metadata
     id="metadata5">
    <rdf:RDF>
      <cc:Work
         rdf:about="">
        <dc:format>image/svg+xml</dc:format>
        <dc:type
           rdf:resource="http://purl.org/dc/dcmitype/StillImage" />
        <dc:title></dc:title>
      </cc:Work>
    </rdf:RDF>
  </metadata>
  <g
     inkscape:label="Layer 1"
     inkscape:groupmode="layer"
     id="layer1"
     transform="translate(0,-164.70832)">
    <g
       aria-label="ã‚"
       style="font-style:normal;font-variant:normal;font-weight:normal;font-stretch:normal;font-size:141.11109924px;line-height:1.25;font-family:MHGKyokashotaiTHK;-inkscape-font-specification:MHGKyokashotaiTHK;letter-spacing:0px;word-spacing:0px;fill:#000000;fill-opacity:1;stroke:none;stroke-width:0.26458332"
       id="text12"
       transform="translate(-14.428607,90.719322)">
      <path
         d="m 129.11666,156.08039 c 0,-7.76111 -2.25778,-13.82889 -6.63223,-18.20333 -4.37444,-4.37445 -10.30111,-6.63223 -17.63888,-6.63223 -10.301113,0 -19.332223,1.27 -26.952223,3.95112 l 10.442222,-32.59667 c 0.423333,-1.12889 0.846666,-1.97555 1.693333,-2.681109 0.987778,-1.128889 0.846666,-1.975556 -0.564445,-2.822222 -2.68111,-1.411111 -5.079999,-2.54 -7.196666,-3.245556 -0.705555,0 -1.693333,0.564445 -2.822222,1.552223 -7.337777,3.386666 -13.969998,6.067774 -19.755553,8.325554 -2.963334,1.12889 -5.503333,1.12889 -7.761111,0 -1.411111,-0.70556 -1.834444,-0.42333 -1.128889,1.12889 0.705556,1.12889 2.822222,2.54 6.067778,4.37444 1.834444,0.70556 3.386666,0.98778 4.374444,0.56445 1.552222,-1.12889 4.092222,-2.82222 7.76111,-4.93889 2.54,-1.55222 5.926666,-3.24556 9.877777,-4.938889 1.834444,-0.846667 2.822222,0.282219 2.257778,3.245559 -2.398889,11.71222 -5.926667,23.14222 -9.877777,34.14888 -13.687777,5.50333 -24.835554,12.41778 -33.725553,21.02556 -3.668889,3.52777 -5.503333,6.91444 -5.503333,9.87777 0,3.24556 0.987778,7.19667 2.822222,11.57111 1.834444,4.37445 4.374444,6.63222 7.761111,6.63222 2.822222,0 6.067777,-1.12888 9.313332,-3.38666 3.668889,-2.39889 7.902222,-6.91445 11.57111,-13.68778 5.503333,-10.16 9.595555,-20.17889 13.264444,-29.77444 8.466666,-2.54 16.086665,-3.81 23.14222,-3.81 8.466661,0 14.252221,1.55222 17.638891,4.93889 3.66888,3.66889 5.50333,8.74889 5.50333,15.38111 0,3.66889 -0.98778,7.62 -2.82222,11.57111 -2.11667,4.79778 -5.08,8.60778 -8.74889,11.57111 0,-2.96333 -0.84667,-5.22111 -2.82222,-6.63222 -4.37445,-3.24556 -8.748891,-4.93889 -13.123335,-4.93889 -4.092222,0 -7.055555,1.12889 -8.889999,3.38666 -1.834445,2.11667 -2.681111,4.23334 -2.681111,6.06778 0,3.24556 0.987777,5.64445 3.245555,7.05556 2.257777,1.55222 6.067777,2.25777 11.57111,2.25777 8.89,0 16.36889,-3.24555 22.57778,-9.87777 5.22111,-5.50334 7.76111,-12.41778 7.76111,-20.46111 z m -18.20334,23.70666 c -1.83444,1.41111 -4.65666,2.68111 -8.32555,3.81 -1.12889,0.42334 -3.245556,0.56445 -6.632222,0.56445 -2.54,0 -4.515555,-0.28223 -6.067777,-1.12889 -2.116667,-0.98778 -3.245555,-2.68111 -3.245555,-4.93889 0,-1.83444 0.564444,-3.38667 1.693333,-4.93889 1.128888,-1.41111 3.245555,-2.25778 6.632221,-1.69333 3.668889,0.56444 6.91444,2.68111 9.87778,5.64444 0.70555,0.98778 1.69333,1.83445 2.82222,2.11667 0.70555,0.42333 1.83444,0.56444 3.24555,0.56444 z M 69.567772,142.2515 c -5.503332,15.09889 -10.583332,25.68222 -14.957776,32.03222 -3.668889,5.50333 -7.337777,8.32555 -11.006666,8.32555 -2.116666,0 -3.809999,-1.12888 -4.938888,-3.38666 -1.128889,-2.11667 -1.693333,-4.79778 -1.693333,-7.76111 0,-4.65667 2.822222,-9.45445 8.325554,-14.25222 6.35,-5.50334 14.393333,-10.44222 24.271109,-14.95778 z"
         style="stroke-width:0.26458332"
         id="path14"
         inkscape:connector-curvature="0" />
    </g>
  </g>
</svg>
