<?xml version="1.0" encoding="UTF-8" standalone="no"?>
<svg
   xmlns:dc="http://purl.org/dc/elements/1.1/"
   xmlns:cc="http://creativecommons.org/ns#"
   xmlns:rdf="http://www.w3.org/1999/02/22-rdf-syntax-ns#"
   xmlns:svg="http://www.w3.org/2000/svg"
   xmlns="http://www.w3.org/2000/svg"
   xmlns:sodipodi="http://sodipodi.sourceforge.net/DTD/sodipodi-0.dtd"
   xmlns:inkscape="http://www.inkscape.org/namespaces/inkscape"
   width="420"
   height="420"
   viewBox="0 0 111.125 111.12501"
   version="1.1"
   id="svg8"
   inkscape:version="1.0.2-2 (e86c870879, 2021-01-15)"
   sodipodi:docname="Katakana letter De.svg">
  <defs
     id="defs2" />
  <sodipodi:namedview
     id="base"
     pagecolor="#ffffff"
     bordercolor="#666666"
     borderopacity="1.0"
     inkscape:pageopacity="0.0"
     inkscape:pageshadow="2"
     inkscape:zoom="0.98994949"
     inkscape:cx="345.76714"
     inkscape:cy="230.41447"
     inkscape:document-units="px"
     inkscape:current-layer="layer1"
     showgrid="false"
     units="px"
     showguides="true"
     inkscape:guide-bbox="true"
     inkscape:snap-center="true"
     inkscape:snap-object-midpoints="false"
     inkscape:window-width="1280"
     inkscape:window-height="657"
     inkscape:window-x="-8"
     inkscape:window-y="-8"
     inkscape:window-maximized="1"
     inkscape:document-rotation="0"
     inkscape:snap-bbox="true"
     inkscape:bbox-paths="true"
     inkscape:bbox-nodes="true" />
  <metadata
     id="metadata5">
    <rdf:RDF>
      <cc:Work
         rdf:about="">
        <dc:format>image/svg+xml</dc:format>
        <dc:type
           rdf:resource="http://purl.org/dc/dcmitype/StillImage" />
        <dc:title />
      </cc:Work>
    </rdf:RDF>
  </metadata>
  <g
     inkscape:label="Layer 1"
     inkscape:groupmode="layer"
     id="layer1"
     transform="translate(0,-185.87499)">
    <path
       d="m 25.50593,208.57635 c 3.492489,5.50332 6.455813,8.57248 11.853296,8.57248 9.419137,0 24.235757,-2.54 32.384898,-4.02166 3.386656,-0.635 4.550819,-1.58749 4.550819,-3.17499 0,-2.53999 -3.492489,-4.12749 -8.043308,-4.12749 -2.222493,0 -3.598322,1.69333 -9.842469,3.06916 -5.29165,1.16416 -12.594127,2.43416 -19.04994,2.43416 -3.492489,0 -6.244147,-1.16416 -10.265801,-4.12749 z M 9.1018155,230.27212 c 0.105833,2.22249 0.211666,3.91582 0.740831,5.18581 1.1641625,2.96333 5.9266475,7.19665 8.3608065,7.09082 2.434159,-0.10584 5.185817,-1.27 8.46664,-2.2225 3.17499,-0.84666 13.017459,-2.43416 21.801598,-3.49249 1.269996,1.48167 1.799161,2.75166 1.799161,4.23332 0,5.71499 -5.926648,29.84491 -31.432401,46.46069 l 2.11666,2.22249 c 25.39992,-13.96995 32.173232,-31.64406 35.877387,-42.75653 1.164163,-3.17499 3.598322,-3.59832 3.598322,-5.71498 0,-1.69333 -2.434159,-3.59832 -5.29165,-5.18582 9.736636,-0.95249 18.626608,-1.16416 23.389093,-1.16416 5.185817,0 9.207471,0.635 10.900799,0.635 2.328326,0 2.963324,-0.9525 2.963324,-2.64583 0,-3.06915 -6.032481,-5.39748 -10.371634,-5.39748 -1.587495,0 -3.280823,1.16416 -10.689133,1.90499 -19.473272,1.69333 -46.354854,5.71499 -53.551498,5.71499 -2.751658,0 -4.868318,-2.75166 -6.879145,-5.60915 z M 77.152434,206.98886 c 4.550819,3.38665 7.196644,6.66748 9.313304,9.3133 2.11666,2.75166 3.069157,5.07999 4.656652,5.18582 1.481662,0 2.539992,-1.05833 2.645825,-2.64583 0.105833,-2.22249 -0.952497,-4.02165 -3.492489,-6.45581 -2.434159,-2.43416 -6.455813,-4.86832 -11.535797,-7.19664 z m 8.149141,-8.46664 c 4.550819,3.17499 6.879145,5.92665 9.313304,8.6783 2.22249,2.64583 3.06916,5.07999 4.86832,5.07999 1.693331,0.10583 2.539991,-0.9525 2.539991,-2.64583 0,-2.22249 -1.05833,-4.33915 -3.809991,-6.56164 -2.645823,-2.01083 -6.244145,-4.23332 -11.535795,-6.24415 z"
       style="font-style:normal;font-variant:normal;font-weight:normal;font-stretch:normal;font-size:105.833px;line-height:100%;font-family:'Noto Serif CJK JP';-inkscape-font-specification:'Noto Serif CJK JP';text-align:center;letter-spacing:0px;word-spacing:0px;text-anchor:middle;fill:#000000;fill-opacity:1;stroke:none;stroke-width:0.264583px;stroke-linecap:butt;stroke-linejoin:miter;stroke-opacity:1"
       id="path9" />
  </g>
</svg>
