<?xml version="1.0" encoding="UTF-8" standalone="no"?>
<svg
   xmlns:dc="http://purl.org/dc/elements/1.1/"
   xmlns:cc="http://creativecommons.org/ns#"
   xmlns:rdf="http://www.w3.org/1999/02/22-rdf-syntax-ns#"
   xmlns:svg="http://www.w3.org/2000/svg"
   xmlns="http://www.w3.org/2000/svg"
   xmlns:sodipodi="http://sodipodi.sourceforge.net/DTD/sodipodi-0.dtd"
   xmlns:inkscape="http://www.inkscape.org/namespaces/inkscape"
   width="420"
   height="420"
   viewBox="0 0 111.125 111.12501"
   version="1.1"
   id="svg8"
   inkscape:version="1.0.2-2 (e86c870879, 2021-01-15)"
   sodipodi:docname="Katakana letter Du.svg">
  <defs
     id="defs2" />
  <sodipodi:namedview
     id="base"
     pagecolor="#ffffff"
     bordercolor="#666666"
     borderopacity="1.0"
     inkscape:pageopacity="0.0"
     inkscape:pageshadow="2"
     inkscape:zoom="0.98994949"
     inkscape:cx="345.76714"
     inkscape:cy="230.41447"
     inkscape:document-units="px"
     inkscape:current-layer="layer1"
     showgrid="false"
     units="px"
     showguides="true"
     inkscape:guide-bbox="true"
     inkscape:snap-center="true"
     inkscape:snap-object-midpoints="false"
     inkscape:window-width="1280"
     inkscape:window-height="657"
     inkscape:window-x="-8"
     inkscape:window-y="-8"
     inkscape:window-maximized="1"
     inkscape:document-rotation="0"
     inkscape:snap-bbox="true"
     inkscape:bbox-paths="true"
     inkscape:bbox-nodes="true" />
  <metadata
     id="metadata5">
    <rdf:RDF>
      <cc:Work
         rdf:about="">
        <dc:format>image/svg+xml</dc:format>
        <dc:type
           rdf:resource="http://purl.org/dc/dcmitype/StillImage" />
        <dc:title />
      </cc:Work>
    </rdf:RDF>
  </metadata>
  <g
     inkscape:label="Layer 1"
     inkscape:groupmode="layer"
     id="layer1"
     transform="translate(0,-185.87499)">
    <path
       d="m 90.064063,216.40799 c 1.587495,0 2.539992,-0.95249 2.539992,-2.75165 0,-2.11666 -1.05833,-3.91582 -3.704155,-6.34998 -2.645825,-2.43416 -6.667479,-4.86832 -12.064962,-7.09081 l -1.375829,1.79916 c 4.550819,3.38665 7.514143,6.66748 9.630803,9.3133 2.222493,2.75166 3.386656,5.07998 4.974151,5.07998 z m 9.630807,-7.30247 c 1.58749,0 2.43415,-0.9525 2.43415,-2.75166 0,-2.11666 -1.05833,-4.12749 -4.02165,-6.56165 -2.434158,-2.11666 -6.561645,-4.12748 -11.959128,-6.03248 l -1.375829,1.79916 c 4.974151,3.28083 7.40831,5.82082 9.842469,8.57248 2.328326,2.53999 3.280818,4.97415 5.079988,4.97415 z M 42.015881,224.4513 c 3.492489,6.45582 3.809988,12.1708 7.40831,12.1708 2.11666,0 3.704155,-1.27 3.704155,-4.23332 0,-4.33916 -2.539992,-8.67831 -6.244147,-12.4883 -3.17499,-3.17499 -6.244147,-5.71498 -10.265801,-8.25497 l -1.799161,1.58749 c 3.069157,3.59833 5.29165,7.30248 7.196644,11.2183 z m -25.505753,6.34998 c 4.021654,7.51415 4.127487,12.59413 8.043308,12.59413 2.539992,0 3.598322,-1.90499 3.492489,-4.23332 0,-3.70416 -2.539992,-8.67831 -7.619976,-13.54662 -2.222493,-2.43416 -6.032481,-5.82082 -9.52497,-7.83165 l -1.904994,1.5875 c 2.751658,3.28082 5.29165,7.09081 7.514143,11.42996 z m 65.828126,-1.69333 c 1.587495,-3.28082 4.444986,-3.49248 4.444986,-6.03248 0,-3.06915 -5.714982,-8.3608 -10.371634,-9.3133 -2.434159,-0.52917 -5.185817,-0.52917 -7.090811,-0.42333 l -0.740831,2.22249 c 5.926648,2.11666 7.831642,3.59832 7.831642,5.60915 0,7.19664 -18.097443,43.81486 -55.879824,63.8173 l 1.481662,2.32832 c 32.914063,-13.96995 50.270675,-36.51238 60.32481,-58.20815 z"
       style="font-style:normal;font-variant:normal;font-weight:normal;font-stretch:normal;font-size:105.833px;line-height:100%;font-family:'Noto Serif CJK JP';-inkscape-font-specification:'Noto Serif CJK JP';text-align:center;letter-spacing:0px;word-spacing:0px;text-anchor:middle;fill:#000000;fill-opacity:1;stroke:none;stroke-width:0.264583px;stroke-linecap:butt;stroke-linejoin:miter;stroke-opacity:1"
       id="path9" />
  </g>
</svg>
