<?xml version="1.0" encoding="UTF-8" standalone="no"?>
<svg
   xmlns:dc="http://purl.org/dc/elements/1.1/"
   xmlns:cc="http://creativecommons.org/ns#"
   xmlns:rdf="http://www.w3.org/1999/02/22-rdf-syntax-ns#"
   xmlns:svg="http://www.w3.org/2000/svg"
   xmlns="http://www.w3.org/2000/svg"
   xmlns:sodipodi="http://sodipodi.sourceforge.net/DTD/sodipodi-0.dtd"
   xmlns:inkscape="http://www.inkscape.org/namespaces/inkscape"
   width="420"
   height="420"
   viewBox="0 0 111.125 111.12501"
   version="1.1"
   id="svg8"
   inkscape:version="1.0.2-2 (e86c870879, 2021-01-15)"
   sodipodi:docname="Katakana letter Ge.svg">
  <defs
     id="defs2" />
  <sodipodi:namedview
     id="base"
     pagecolor="#ffffff"
     bordercolor="#666666"
     borderopacity="1.0"
     inkscape:pageopacity="0.0"
     inkscape:pageshadow="2"
     inkscape:zoom="0.98994949"
     inkscape:cx="345.76714"
     inkscape:cy="230.41447"
     inkscape:document-units="px"
     inkscape:current-layer="layer1"
     showgrid="false"
     units="px"
     showguides="true"
     inkscape:guide-bbox="true"
     inkscape:snap-center="true"
     inkscape:snap-object-midpoints="false"
     inkscape:window-width="1280"
     inkscape:window-height="657"
     inkscape:window-x="-8"
     inkscape:window-y="-8"
     inkscape:window-maximized="1"
     inkscape:document-rotation="0"
     inkscape:snap-bbox="true"
     inkscape:bbox-paths="true"
     inkscape:bbox-nodes="true" />
  <metadata
     id="metadata5">
    <rdf:RDF>
      <cc:Work
         rdf:about="">
        <dc:format>image/svg+xml</dc:format>
        <dc:type
           rdf:resource="http://purl.org/dc/dcmitype/StillImage" />
        <dc:title />
      </cc:Work>
    </rdf:RDF>
  </metadata>
  <g
     inkscape:label="Layer 1"
     inkscape:groupmode="layer"
     id="layer1"
     transform="translate(0,-185.87499)">
    <path
       d="m 74.77119,204.97803 c 4.444986,3.38666 7.090811,6.45581 9.419137,9.3133 2.010827,2.64583 3.17499,4.97416 4.868318,4.97416 1.587495,0 2.645825,-0.9525 2.645825,-2.64583 0,-2.22249 -1.164163,-4.12749 -3.915821,-6.56165 -2.539992,-2.32832 -6.34998,-4.76248 -11.535797,-6.87914 z M 33.49632,203.2847 c 3.17499,2.53999 4.868318,4.23332 4.868318,6.56165 0,6.45581 -11.959129,27.19908 -28.786576,41.27487 l 1.799161,2.01083 c 10.159968,-6.77332 17.462445,-13.96996 23.28326,-21.69577 1.799161,1.5875 3.915821,3.06916 5.397483,3.06916 2.010827,0 4.550819,-0.74083 7.196644,-1.05833 1.587495,-0.21167 3.704155,-0.52917 6.032481,-0.84667 2.11666,1.37583 3.598322,2.96333 3.598322,5.07999 0,10.37163 -14.075789,33.86656 -34.713224,47.62485 l 1.904994,2.01082 c 20.954934,-11.32413 33.337395,-27.62241 39.581542,-44.23819 0.846664,-2.32833 2.645825,-3.06916 2.645825,-4.86832 0,-1.79916 -3.17499,-4.44498 -7.514143,-6.24414 5.820815,-0.74084 11.853296,-1.37583 15.451618,-1.5875 4.868318,-0.3175 11.429964,-0.21167 14.604954,-0.21167 3.598322,0 4.127487,-1.05833 4.127487,-2.85749 0,-2.64582 -4.974151,-4.97415 -8.572473,-4.97415 -2.010827,0 -2.645825,1.37583 -7.302477,2.01083 -5.820815,0.9525 -30.056572,4.23332 -36.089053,4.23332 -1.269996,0 -2.434159,-0.21167 -3.915821,-0.635 2.963324,-4.12749 5.503316,-8.36081 7.831642,-12.80579 1.269996,-2.11666 3.492489,-2.64583 3.492489,-4.55082 0,-1.90499 -3.704155,-5.29165 -6.667479,-6.77331 -1.693328,-0.9525 -4.444986,-1.79916 -7.196644,-2.2225 z m 51.011506,-4.44498 c 4.762485,3.49249 7.090811,5.92664 9.419137,8.46664 2.328326,2.64582 3.386656,5.07998 5.185817,5.07998 1.37583,0 2.43416,-0.9525 2.43416,-2.64582 0,-2.2225 -1.05833,-4.23332 -3.809989,-6.56165 -2.539992,-2.22249 -6.455813,-4.23332 -11.959129,-6.13831 z"
       style="font-style:normal;font-variant:normal;font-weight:normal;font-stretch:normal;font-size:105.833px;line-height:100%;font-family:'Noto Serif CJK JP';-inkscape-font-specification:'Noto Serif CJK JP';text-align:center;letter-spacing:0px;word-spacing:0px;text-anchor:middle;fill:#000000;fill-opacity:1;stroke:none;stroke-width:0.264583px;stroke-linecap:butt;stroke-linejoin:miter;stroke-opacity:1"
       id="path9" />
  </g>
</svg>
