<?xml version="1.0" encoding="UTF-8" standalone="no"?>
<svg
   xmlns:dc="http://purl.org/dc/elements/1.1/"
   xmlns:cc="http://creativecommons.org/ns#"
   xmlns:rdf="http://www.w3.org/1999/02/22-rdf-syntax-ns#"
   xmlns:svg="http://www.w3.org/2000/svg"
   xmlns="http://www.w3.org/2000/svg"
   xmlns:sodipodi="http://sodipodi.sourceforge.net/DTD/sodipodi-0.dtd"
   xmlns:inkscape="http://www.inkscape.org/namespaces/inkscape"
   width="420"
   height="420"
   viewBox="0 0 111.125 111.12501"
   version="1.1"
   id="svg8"
   inkscape:version="1.0.2-2 (e86c870879, 2021-01-15)"
   sodipodi:docname="Katakana letter Gu.svg">
  <defs
     id="defs2" />
  <sodipodi:namedview
     id="base"
     pagecolor="#ffffff"
     bordercolor="#666666"
     borderopacity="1.0"
     inkscape:pageopacity="0.0"
     inkscape:pageshadow="2"
     inkscape:zoom="0.98994949"
     inkscape:cx="345.76714"
     inkscape:cy="230.41447"
     inkscape:document-units="px"
     inkscape:current-layer="layer1"
     showgrid="false"
     units="px"
     showguides="true"
     inkscape:guide-bbox="true"
     inkscape:snap-center="true"
     inkscape:snap-object-midpoints="false"
     inkscape:window-width="1280"
     inkscape:window-height="657"
     inkscape:window-x="-8"
     inkscape:window-y="-8"
     inkscape:window-maximized="1"
     inkscape:document-rotation="0"
     inkscape:snap-bbox="true"
     inkscape:bbox-paths="true"
     inkscape:bbox-nodes="true" />
  <metadata
     id="metadata5">
    <rdf:RDF>
      <cc:Work
         rdf:about="">
        <dc:format>image/svg+xml</dc:format>
        <dc:type
           rdf:resource="http://purl.org/dc/dcmitype/StillImage" />
        <dc:title />
      </cc:Work>
    </rdf:RDF>
  </metadata>
  <g
     inkscape:label="Layer 1"
     inkscape:groupmode="layer"
     id="layer1"
     transform="translate(0,-185.87499)">
    <path
       d="m 35.665899,204.44887 c 3.704155,1.58749 6.455813,3.28082 6.455813,5.07998 0,6.13831 -15.557451,27.72825 -32.067399,39.58154 l 1.587495,2.22249 c 12.382461,-6.77331 22.965761,-16.29828 31.326568,-27.51658 1.693328,1.48167 3.386656,2.54 4.550819,2.54 1.481662,0 3.704155,-0.84667 5.926648,-1.37583 3.809988,-0.74083 14.604954,-2.43416 16.93328,-2.43416 0.952497,0 1.375829,0.3175 0.846664,1.58749 -8.254974,20.95494 -33.125729,48.25985 -60.32481,62.44147 l 1.587495,2.32833 c 29.844906,-12.38246 51.329005,-34.18406 65.828126,-60.53648 1.481662,-2.75165 4.974151,-3.38665 4.974151,-5.50331 0,-2.75166 -6.667479,-7.09081 -9.207471,-7.09081 -1.799161,0 -2.539992,1.79916 -5.397483,2.43416 -2.963324,0.52916 -15.980783,2.01082 -21.060767,2.01082 -0.634998,0 -1.269996,0 -2.010827,-0.10583 1.269996,-1.79916 2.434159,-3.80999 3.598322,-5.71498 1.587495,-2.64583 3.069157,-3.70416 3.069157,-5.50332 0,-1.90499 -5.609149,-5.07998 -9.736636,-6.03248 -2.328326,-0.42333 -4.444986,-0.42333 -6.34998,-0.42333 z m 38.840711,0.95249 c 4.656652,3.38666 7.514143,6.66748 9.736636,9.31331 2.11666,2.75165 3.386656,5.07998 4.868318,5.07998 1.587495,0 2.539992,-1.05833 2.539992,-2.75166 0,-2.11666 -0.952497,-3.91582 -3.598322,-6.45581 -2.645825,-2.43416 -6.667479,-4.76249 -12.170795,-6.87915 z m 9.207471,-6.56164 c 4.868318,3.49249 7.40831,5.92664 9.736636,8.57247 2.328324,2.64582 3.386654,5.07998 5.185814,5.07998 1.481659,0 2.434159,-0.95249 2.434159,-2.75165 0,-2.2225 -1.164159,-4.33916 -4.021649,-6.56165 -2.645827,-1.90499 -6.561648,-4.23332 -12.064964,-6.13831 z"
       style="font-style:normal;font-variant:normal;font-weight:normal;font-stretch:normal;font-size:105.833px;line-height:100%;font-family:'Noto Serif CJK JP';-inkscape-font-specification:'Noto Serif CJK JP';text-align:center;letter-spacing:0px;word-spacing:0px;text-anchor:middle;fill:#000000;fill-opacity:1;stroke:none;stroke-width:0.264583px;stroke-linecap:butt;stroke-linejoin:miter;stroke-opacity:1"
       id="path9" />
  </g>
</svg>
