<?xml version="1.0" encoding="UTF-8" standalone="no"?>
<svg
   xmlns:dc="http://purl.org/dc/elements/1.1/"
   xmlns:cc="http://creativecommons.org/ns#"
   xmlns:rdf="http://www.w3.org/1999/02/22-rdf-syntax-ns#"
   xmlns:svg="http://www.w3.org/2000/svg"
   xmlns="http://www.w3.org/2000/svg"
   xmlns:sodipodi="http://sodipodi.sourceforge.net/DTD/sodipodi-0.dtd"
   xmlns:inkscape="http://www.inkscape.org/namespaces/inkscape"
   width="420"
   height="420"
   viewBox="0 0 111.125 111.12501"
   version="1.1"
   id="svg8"
   inkscape:version="1.0.2-2 (e86c870879, 2021-01-15)"
   sodipodi:docname="Katakana letter Zu.svg">
  <defs
     id="defs2" />
  <sodipodi:namedview
     id="base"
     pagecolor="#ffffff"
     bordercolor="#666666"
     borderopacity="1.0"
     inkscape:pageopacity="0.0"
     inkscape:pageshadow="2"
     inkscape:zoom="0.98994949"
     inkscape:cx="345.76714"
     inkscape:cy="230.41447"
     inkscape:document-units="px"
     inkscape:current-layer="layer1"
     showgrid="false"
     units="px"
     showguides="true"
     inkscape:guide-bbox="true"
     inkscape:snap-center="true"
     inkscape:snap-object-midpoints="false"
     inkscape:window-width="1280"
     inkscape:window-height="657"
     inkscape:window-x="-8"
     inkscape:window-y="-8"
     inkscape:window-maximized="1"
     inkscape:document-rotation="0"
     inkscape:snap-bbox="true"
     inkscape:bbox-paths="true"
     inkscape:bbox-nodes="true" />
  <metadata
     id="metadata5">
    <rdf:RDF>
      <cc:Work
         rdf:about="">
        <dc:format>image/svg+xml</dc:format>
        <dc:type
           rdf:resource="http://purl.org/dc/dcmitype/StillImage" />
        <dc:title />
      </cc:Work>
    </rdf:RDF>
  </metadata>
  <g
     inkscape:label="Layer 1"
     inkscape:groupmode="layer"
     id="layer1"
     transform="translate(0,-185.87499)">
    <path
       d="m 75.088689,204.5547 c 4.656652,3.17499 7.40831,6.13831 9.630803,9.10164 2.010827,2.75165 3.17499,5.07998 4.868318,5.07998 1.481662,0 2.645825,-0.9525 2.645825,-2.64582 0,-2.11666 -1.05833,-4.12749 -3.598322,-6.45582 -2.645825,-2.43416 -6.773312,-4.86832 -12.064962,-6.98498 z m -51.540671,10.2658 c 0.211666,2.96332 0.846664,5.18582 1.481662,6.45581 1.269996,2.75166 5.503316,7.30248 8.572473,7.30248 2.539992,0 2.963324,-1.90499 6.244147,-2.75166 5.820815,-1.48166 20.531602,-5.07998 28.045745,-6.24415 1.164163,-0.10583 1.799161,0.10584 1.269996,1.48167 -9.842469,21.69576 -34.819057,46.56652 -59.6898123,59.47814 l 1.5874953,2.64583 c 20.10827,-8.04331 35.136556,-20.95494 44.873192,-31.22074 9.52497,5.60915 16.298282,11.8533 23.389093,19.79077 5.609149,6.34998 7.090811,9.73664 9.948302,9.73664 2.434159,0 3.598322,-1.79916 3.598322,-3.91582 0,-8.78414 -17.356612,-20.5316 -34.395725,-28.25741 7.725809,-8.57248 13.969956,-18.30911 17.568278,-24.02409 1.375829,-2.11666 4.550819,-2.96333 4.550819,-5.07999 0,-2.32832 -6.879145,-7.83164 -10.054135,-7.83164 -1.481662,0 -2.751658,2.01083 -4.974151,2.64583 -5.820815,1.48166 -26.669916,5.18581 -32.490731,5.18581 -3.492489,0 -5.503316,-3.80999 -7.302477,-6.34998 z m 60.959808,-17.03911 c 4.656652,3.38665 7.302477,5.92664 9.52497,8.57247 2.222493,2.64582 3.386656,5.07998 5.079984,5.07998 1.5875,0 2.54,-0.95249 2.54,-2.75165 0,-2.2225 -1.05834,-4.23332 -3.809996,-6.56165 -2.645825,-2.11666 -6.667479,-4.23332 -12.064962,-6.13831 z"
       style="font-style:normal;font-variant:normal;font-weight:normal;font-stretch:normal;font-size:105.833px;line-height:100%;font-family:'Noto Serif CJK JP';-inkscape-font-specification:'Noto Serif CJK JP';text-align:center;letter-spacing:0px;word-spacing:0px;text-anchor:middle;fill:#000000;fill-opacity:1;stroke:none;stroke-width:0.264583px;stroke-linecap:butt;stroke-linejoin:miter;stroke-opacity:1"
       id="path9" />
  </g>
</svg>
