<?xml version="1.0" encoding="UTF-8" standalone="no"?>
<svg
   xmlns:dc="http://purl.org/dc/elements/1.1/"
   xmlns:cc="http://creativecommons.org/ns#"
   xmlns:rdf="http://www.w3.org/1999/02/22-rdf-syntax-ns#"
   xmlns:svg="http://www.w3.org/2000/svg"
   xmlns="http://www.w3.org/2000/svg"
   xmlns:sodipodi="http://sodipodi.sourceforge.net/DTD/sodipodi-0.dtd"
   xmlns:inkscape="http://www.inkscape.org/namespaces/inkscape"
   width="420"
   height="420"
   viewBox="0 0 111.125 111.12501"
   version="1.1"
   id="svg8"
   inkscape:version="1.0.2-2 (e86c870879, 2021-01-15)"
   sodipodi:docname="Katakana letter Pa.svg">
  <defs
     id="defs2" />
  <sodipodi:namedview
     id="base"
     pagecolor="#ffffff"
     bordercolor="#666666"
     borderopacity="1.0"
     inkscape:pageopacity="0.0"
     inkscape:pageshadow="2"
     inkscape:zoom="0.98994949"
     inkscape:cx="345.76714"
     inkscape:cy="230.41447"
     inkscape:document-units="px"
     inkscape:current-layer="layer1"
     showgrid="false"
     units="px"
     showguides="true"
     inkscape:guide-bbox="true"
     inkscape:snap-center="true"
     inkscape:snap-object-midpoints="false"
     inkscape:window-width="1280"
     inkscape:window-height="657"
     inkscape:window-x="-8"
     inkscape:window-y="-8"
     inkscape:window-maximized="1"
     inkscape:document-rotation="0"
     inkscape:snap-bbox="true"
     inkscape:bbox-paths="true"
     inkscape:bbox-nodes="true" />
  <metadata
     id="metadata5">
    <rdf:RDF>
      <cc:Work
         rdf:about="">
        <dc:format>image/svg+xml</dc:format>
        <dc:type
           rdf:resource="http://purl.org/dc/dcmitype/StillImage" />
        <dc:title />
      </cc:Work>
    </rdf:RDF>
  </metadata>
  <g
     inkscape:label="Layer 1"
     inkscape:groupmode="layer"
     id="layer1"
     transform="translate(0,-185.87499)">
    <path
       d="m 90.487393,229.53129 c 6.455813,0 11.641627,-5.18582 11.641627,-11.64163 0,-6.45582 -5.185814,-11.64163 -11.641627,-11.64163 -6.455813,0 -11.64163,5.18581 -11.64163,11.64163 0,6.45581 5.185817,11.64163 11.64163,11.64163 z m 0,-19.79077 c 4.550819,0 8.149141,3.59832 8.149141,8.14914 0,4.55082 -3.598322,8.14914 -8.149141,8.14914 -4.550819,0 -8.149141,-3.59832 -8.149141,-8.14914 0,-4.55082 3.598322,-8.14914 8.149141,-8.14914 z M 42.75671,234.3996 c 0,7.40831 -20.10827,27.62242 -33.7607278,36.93572 l 1.5874948,2.11666 c 14.287456,-7.09081 28.151579,-19.15577 37.782382,-31.22073 1.904994,-2.32833 4.23332,-3.28083 4.23332,-5.29165 0,-3.17499 -5.609149,-9.31331 -10.054135,-10.47747 -2.222493,-0.635 -4.656652,-0.635 -6.244147,-0.635 l -0.740831,2.01083 c 2.751658,1.37583 7.196644,4.12749 7.196644,6.56164 z m 57.78482,28.15158 C 99.059866,249.74539 81.279922,233.34127 66.251636,225.19213 l -1.693328,2.11666 c 12.594127,9.94831 21.272433,20.95494 27.199081,35.13656 1.693328,4.23332 2.328326,6.34998 4.974151,6.34998 2.434159,0 4.23332,-2.32833 3.80999,-6.24415 z"
       style="font-style:normal;font-variant:normal;font-weight:normal;font-stretch:normal;font-size:105.833px;line-height:100%;font-family:'Noto Serif CJK JP';-inkscape-font-specification:'Noto Serif CJK JP';text-align:center;letter-spacing:0px;word-spacing:0px;text-anchor:middle;fill:#000000;fill-opacity:1;stroke:none;stroke-width:0.264583px;stroke-linecap:butt;stroke-linejoin:miter;stroke-opacity:1"
       id="path9" />
  </g>
</svg>
