<?xml version="1.0" encoding="UTF-8" standalone="no"?>
<svg
   xmlns:dc="http://purl.org/dc/elements/1.1/"
   xmlns:cc="http://creativecommons.org/ns#"
   xmlns:rdf="http://www.w3.org/1999/02/22-rdf-syntax-ns#"
   xmlns:svg="http://www.w3.org/2000/svg"
   xmlns="http://www.w3.org/2000/svg"
   xmlns:sodipodi="http://sodipodi.sourceforge.net/DTD/sodipodi-0.dtd"
   xmlns:inkscape="http://www.inkscape.org/namespaces/inkscape"
   width="420"
   height="420"
   viewBox="0 0 111.125 111.12501"
   version="1.1"
   id="svg8"
   inkscape:version="1.0.2-2 (e86c870879, 2021-01-15)"
   sodipodi:docname="Katakana letter Pe.svg">
  <defs
     id="defs2" />
  <sodipodi:namedview
     id="base"
     pagecolor="#ffffff"
     bordercolor="#666666"
     borderopacity="1.0"
     inkscape:pageopacity="0.0"
     inkscape:pageshadow="2"
     inkscape:zoom="0.98994949"
     inkscape:cx="345.76714"
     inkscape:cy="230.41447"
     inkscape:document-units="px"
     inkscape:current-layer="layer1"
     showgrid="false"
     units="px"
     showguides="true"
     inkscape:guide-bbox="true"
     inkscape:snap-center="true"
     inkscape:snap-object-midpoints="false"
     inkscape:window-width="1280"
     inkscape:window-height="657"
     inkscape:window-x="-8"
     inkscape:window-y="-8"
     inkscape:window-maximized="1"
     inkscape:document-rotation="0"
     inkscape:snap-bbox="true"
     inkscape:bbox-paths="true"
     inkscape:bbox-nodes="true" />
  <metadata
     id="metadata5">
    <rdf:RDF>
      <cc:Work
         rdf:about="">
        <dc:format>image/svg+xml</dc:format>
        <dc:type
           rdf:resource="http://purl.org/dc/dcmitype/StillImage" />
        <dc:title />
      </cc:Work>
    </rdf:RDF>
  </metadata>
  <g
     inkscape:label="Layer 1"
     inkscape:groupmode="layer"
     id="layer1"
     transform="translate(0,-185.87499)">
    <path
       d="m 82.073669,234.08211 c 6.561646,0 11.959129,-5.39749 11.959129,-12.06497 0,-6.56164 -5.397483,-11.95913 -11.959129,-11.95913 -6.667479,0 -12.064962,5.39749 -12.064962,11.95913 0,6.66748 5.397483,12.06497 12.064962,12.06497 z m 0,-20.53161 c 4.656652,0 8.46664,3.80999 8.46664,8.46664 0,4.86832 -3.809988,8.57248 -8.46664,8.57248 -4.762485,0 -8.572473,-3.70416 -8.572473,-8.57248 0,-4.65665 3.809988,-8.46664 8.572473,-8.46664 z m -70.590611,37.46489 c 2.222493,2.53999 6.244147,5.07998 9.101638,5.07998 2.963324,0 4.444986,-2.22249 7.090811,-5.50332 3.915821,-4.86831 12.170795,-15.55745 15.451618,-19.36744 1.693328,-1.90499 2.857491,-2.43415 4.021654,-2.43415 1.375829,0 2.645825,0.74083 4.656652,2.64582 8.043308,8.04331 25.188254,26.14075 31.855733,32.59656 7.090811,6.77332 12.276628,11.11247 15.239952,11.11247 2.010824,0 3.174994,-1.27 3.174994,-3.28082 0,-2.75166 -1.69333,-5.50332 -4.233324,-7.19665 -13.123292,-8.78414 -29.315741,-24.23575 -42.650699,-37.57071 -3.069157,-3.17499 -5.609149,-4.12749 -8.360807,-4.12749 -2.539992,0 -4.656652,1.5875 -6.879145,3.91582 -3.598322,3.59832 -12.594127,13.86412 -17.462445,18.30911 -2.11666,1.90499 -3.492489,2.85749 -4.974151,2.85749 -1.799161,0 -4.339153,-1.58749 -6.773312,-3.80999 l -1.6933283,1.48167 c 0.634998,2.01082 1.1641633,3.91582 2.4341593,5.29165 z"
       style="font-style:normal;font-variant:normal;font-weight:normal;font-stretch:normal;font-size:105.833px;line-height:100%;font-family:'Noto Serif CJK JP';-inkscape-font-specification:'Noto Serif CJK JP';text-align:center;letter-spacing:0px;word-spacing:0px;text-anchor:middle;fill:#000000;fill-opacity:1;stroke:none;stroke-width:0.264583px;stroke-linecap:butt;stroke-linejoin:miter;stroke-opacity:1"
       id="path9" />
  </g>
</svg>
