<?xml version="1.0" encoding="UTF-8" standalone="no"?>
<svg
   xmlns:dc="http://purl.org/dc/elements/1.1/"
   xmlns:cc="http://creativecommons.org/ns#"
   xmlns:rdf="http://www.w3.org/1999/02/22-rdf-syntax-ns#"
   xmlns:svg="http://www.w3.org/2000/svg"
   xmlns="http://www.w3.org/2000/svg"
   xmlns:sodipodi="http://sodipodi.sourceforge.net/DTD/sodipodi-0.dtd"
   xmlns:inkscape="http://www.inkscape.org/namespaces/inkscape"
   width="420"
   height="420"
   viewBox="0 0 111.125 111.12501"
   version="1.1"
   id="svg8"
   inkscape:version="1.0.2-2 (e86c870879, 2021-01-15)"
   sodipodi:docname="Katakana letter Zo.svg">
  <defs
     id="defs2" />
  <sodipodi:namedview
     id="base"
     pagecolor="#ffffff"
     bordercolor="#666666"
     borderopacity="1.0"
     inkscape:pageopacity="0.0"
     inkscape:pageshadow="2"
     inkscape:zoom="0.98994949"
     inkscape:cx="345.76714"
     inkscape:cy="230.41447"
     inkscape:document-units="px"
     inkscape:current-layer="layer1"
     showgrid="false"
     units="px"
     showguides="true"
     inkscape:guide-bbox="true"
     inkscape:snap-center="true"
     inkscape:snap-object-midpoints="false"
     inkscape:window-width="1280"
     inkscape:window-height="657"
     inkscape:window-x="-8"
     inkscape:window-y="-8"
     inkscape:window-maximized="1"
     inkscape:document-rotation="0"
     inkscape:snap-bbox="true"
     inkscape:bbox-paths="true"
     inkscape:bbox-nodes="true" />
  <metadata
     id="metadata5">
    <rdf:RDF>
      <cc:Work
         rdf:about="">
        <dc:format>image/svg+xml</dc:format>
        <dc:type
           rdf:resource="http://purl.org/dc/dcmitype/StillImage" />
        <dc:title />
      </cc:Work>
    </rdf:RDF>
  </metadata>
  <g
     inkscape:label="Layer 1"
     inkscape:groupmode="layer"
     id="layer1"
     transform="translate(0,-185.87499)">
    <path
       d="m 87.524067,216.51383 c 1.587495,0 2.539992,-0.9525 2.539992,-2.75166 0,-2.22249 -1.05833,-4.02165 -3.704155,-6.34998 -2.645825,-2.53999 -6.667479,-4.86832 -12.170795,-7.09081 l -1.269996,1.79916 c 4.550819,3.38666 7.40831,6.56165 9.630803,9.3133 2.222493,2.64583 3.280823,5.07999 4.974151,5.07999 z m 9.524974,-7.30248 c 1.69332,0 2.53999,-0.9525 2.53999,-2.75166 0,-2.22249 -1.05833,-4.12748 -4.02166,-6.56164 -2.434155,-2.11666 -6.561642,-4.12749 -12.064958,-6.03248 l -1.269996,1.79916 c 4.868318,3.28082 7.40831,5.82081 9.842469,8.57247 2.222493,2.53999 3.280825,4.97415 4.974155,4.97415 z M 77.0466,228.15546 c 1.481662,-3.49249 4.656652,-4.02166 4.656652,-6.13832 0,-2.96332 -6.138314,-8.57247 -10.5833,-9.3133 -2.434159,-0.42333 -4.762485,-0.3175 -6.773312,-0.21167 l -0.846664,2.43416 c 8.360807,2.85749 7.725809,4.55082 6.984978,7.30248 -4.550819,19.5791 -24.553256,47.41318 -54.503995,64.1348 l 1.693328,2.32832 C 46.884195,275.88614 65.616636,254.93121 77.0466,228.15546 Z m -54.186496,1.90499 c 4.656652,6.66748 6.138314,12.06496 9.313304,11.95913 2.328326,-0.10583 3.809988,-1.90499 3.809988,-4.44499 -0.317499,-7.93747 -12.064962,-17.46244 -22.754095,-22.54242 l -1.693328,2.11666 c 4.23332,3.80998 7.937475,7.83164 11.324131,12.91162 z"
       style="font-style:normal;font-variant:normal;font-weight:normal;font-stretch:normal;font-size:105.833px;line-height:100%;font-family:'Noto Serif CJK JP';-inkscape-font-specification:'Noto Serif CJK JP';text-align:center;letter-spacing:0px;word-spacing:0px;text-anchor:middle;fill:#000000;fill-opacity:1;stroke:none;stroke-width:0.264583px;stroke-linecap:butt;stroke-linejoin:miter;stroke-opacity:1"
       id="path9" />
  </g>
</svg>
