<?xml version="1.0" encoding="UTF-8" standalone="no"?>
<svg
   xmlns:dc="http://purl.org/dc/elements/1.1/"
   xmlns:cc="http://creativecommons.org/ns#"
   xmlns:rdf="http://www.w3.org/1999/02/22-rdf-syntax-ns#"
   xmlns:svg="http://www.w3.org/2000/svg"
   xmlns="http://www.w3.org/2000/svg"
   xmlns:sodipodi="http://sodipodi.sourceforge.net/DTD/sodipodi-0.dtd"
   xmlns:inkscape="http://www.inkscape.org/namespaces/inkscape"
   width="420"
   height="420"
   viewBox="0 0 111.125 111.12501"
   version="1.1"
   id="svg8"
   inkscape:version="1.0.2-2 (e86c870879, 2021-01-15)"
   sodipodi:docname="Hiragana letter Ge.svg">
  <defs
     id="defs2" />
  <sodipodi:namedview
     id="base"
     pagecolor="#ffffff"
     bordercolor="#666666"
     borderopacity="1.0"
     inkscape:pageopacity="0.0"
     inkscape:pageshadow="2"
     inkscape:zoom="0.98994949"
     inkscape:cx="345.76714"
     inkscape:cy="230.41447"
     inkscape:document-units="px"
     inkscape:current-layer="layer1"
     showgrid="false"
     units="px"
     showguides="true"
     inkscape:guide-bbox="true"
     inkscape:snap-center="true"
     inkscape:snap-object-midpoints="false"
     inkscape:window-width="1366"
     inkscape:window-height="705"
     inkscape:window-x="-8"
     inkscape:window-y="-8"
     inkscape:window-maximized="1"
     inkscape:document-rotation="0"
     inkscape:snap-bbox="true"
     inkscape:bbox-paths="true"
     inkscape:bbox-nodes="true" />
  <metadata
     id="metadata5">
    <rdf:RDF>
      <cc:Work
         rdf:about="">
        <dc:format>image/svg+xml</dc:format>
        <dc:type
           rdf:resource="http://purl.org/dc/dcmitype/StillImage" />
        <dc:title />
      </cc:Work>
    </rdf:RDF>
  </metadata>
  <g
     inkscape:label="Layer 1"
     inkscape:groupmode="layer"
     id="layer1"
     transform="translate(0,-185.87499)">
    <path
       d="m 76.566419,202.86137 c 4.127487,3.59832 6.244147,6.77331 7.937475,9.52497 1.904994,2.85749 2.857491,5.39748 4.444986,5.50332 1.587495,0.10583 2.751658,-0.74083 2.751658,-2.43416 0.211666,-2.11666 -0.634998,-4.12749 -2.963324,-6.66748 -2.434159,-2.75166 -5.714982,-5.07999 -10.689133,-7.61998 z m -46.778186,40.63987 c -2.963324,7.30248 -7.831642,19.15578 -9.630803,22.22493 -0.846664,1.69333 -1.693328,1.5875 -2.539992,0 -1.164163,-2.43416 -2.222493,-6.24414 -2.222493,-12.27663 0,-9.20747 3.915821,-19.47327 6.984978,-26.24658 1.481662,-3.28082 3.17499,-6.34998 3.17499,-8.67831 0,-4.65665 -4.974151,-9.84246 -7.302477,-11.64163 -1.587495,-1.16416 -3.069157,-2.01082 -5.609149,-3.06915 l -1.481662,1.58749 c 4.021654,4.23332 6.34998,7.51415 6.34998,11.42997 0,7.30247 -6.984978,23.81242 -6.984978,37.25321 0,13.96996 3.492489,21.90743 6.455813,26.56409 1.269996,2.11666 2.963324,3.80998 5.079984,3.80998 1.693328,0 3.069157,-0.95249 3.069157,-2.85749 0,-3.59832 -1.587495,-4.86832 -1.587495,-8.04331 0,-2.32832 0.529165,-4.76248 1.164163,-7.19664 1.05833,-3.59832 4.868318,-14.49912 7.40831,-21.69576 z m 28.151578,-36.40655 c 2.328326,0.21167 5.29165,0.42333 6.984978,1.05833 1.587495,0.42333 2.222493,1.05833 2.434159,3.38666 0.317499,2.96332 0.740831,10.68913 1.05833,17.03911 -4.021654,0.84666 -8.254974,1.48166 -11.853296,1.48166 -5.926648,0 -10.5833,-1.90499 -16.404115,-5.82081 l -1.375829,1.90499 c 5.397483,7.30248 11.324131,9.6308 17.568278,9.6308 4.23332,0 8.360807,-0.42333 12.382461,-1.05833 0.423332,10.47747 1.05833,24.76493 -2.751658,33.44323 -4.021654,10.15997 -10.689133,15.23995 -20.214103,20.31994 l 1.269996,2.22249 c 11.218298,-3.91582 20.10827,-8.88997 24.976588,-19.47327 4.762485,-9.73664 3.704155,-26.56408 3.069157,-37.67655 6.032481,-1.37583 11.112465,-3.17499 14.181622,-4.55082 2.11666,-0.9525 2.963324,-1.90499 2.963324,-3.59832 0,-2.11666 -3.17499,-3.17499 -5.397483,-3.17499 -0.846664,0 -1.904994,1.05833 -6.032481,2.75166 -1.587495,0.635 -3.704155,1.37583 -6.032481,2.01082 -0.211666,-4.33915 -0.317499,-8.57247 -0.211666,-11.00663 0,-3.80999 1.587495,-5.71498 1.587495,-7.40831 0,-2.75166 -6.561646,-5.50331 -10.5833,-5.50331 -1.904994,0 -5.503316,0.84666 -7.831642,1.79916 z m 26.881582,-10.68913 c 4.444986,3.49249 6.561646,6.13831 8.360807,8.57247 1.904995,2.75166 3.280825,5.39748 4.762485,5.39748 1.58749,0 2.539985,-0.84666 2.645815,-2.43416 0.10584,-2.22249 -0.846655,-4.23332 -3.386645,-6.66747 -2.539993,-2.54 -5.714983,-4.44499 -10.794967,-6.66748 z"
       style="font-style:normal;font-variant:normal;font-weight:normal;font-stretch:normal;font-size:105.833px;line-height:100%;font-family:'Noto Serif CJK JP';-inkscape-font-specification:'Noto Serif CJK JP';text-align:center;letter-spacing:0px;word-spacing:0px;text-anchor:middle;fill:#000000;fill-opacity:1;stroke:none;stroke-width:0.264583px;stroke-linecap:butt;stroke-linejoin:miter;stroke-opacity:1"
       id="path9" />
  </g>
</svg>
