<?xml version="1.0" encoding="UTF-8" standalone="no"?>
<svg
   xmlns:dc="http://purl.org/dc/elements/1.1/"
   xmlns:cc="http://creativecommons.org/ns#"
   xmlns:rdf="http://www.w3.org/1999/02/22-rdf-syntax-ns#"
   xmlns:svg="http://www.w3.org/2000/svg"
   xmlns="http://www.w3.org/2000/svg"
   xmlns:sodipodi="http://sodipodi.sourceforge.net/DTD/sodipodi-0.dtd"
   xmlns:inkscape="http://www.inkscape.org/namespaces/inkscape"
   width="420"
   height="420"
   viewBox="0 0 111.125 111.12501"
   version="1.1"
   id="svg8"
   inkscape:version="1.0.2-2 (e86c870879, 2021-01-15)"
   sodipodi:docname="Hiragana letter Po.svg">
  <defs
     id="defs2" />
  <sodipodi:namedview
     id="base"
     pagecolor="#ffffff"
     bordercolor="#666666"
     borderopacity="1.0"
     inkscape:pageopacity="0.0"
     inkscape:pageshadow="2"
     inkscape:zoom="0.98994949"
     inkscape:cx="345.76714"
     inkscape:cy="230.41447"
     inkscape:document-units="px"
     inkscape:current-layer="layer1"
     showgrid="false"
     units="px"
     showguides="true"
     inkscape:guide-bbox="true"
     inkscape:snap-center="true"
     inkscape:snap-object-midpoints="false"
     inkscape:window-width="1366"
     inkscape:window-height="705"
     inkscape:window-x="-8"
     inkscape:window-y="-8"
     inkscape:window-maximized="1"
     inkscape:document-rotation="0"
     inkscape:snap-bbox="true"
     inkscape:bbox-paths="true"
     inkscape:bbox-nodes="true" />
  <metadata
     id="metadata5">
    <rdf:RDF>
      <cc:Work
         rdf:about="">
        <dc:format>image/svg+xml</dc:format>
        <dc:type
           rdf:resource="http://purl.org/dc/dcmitype/StillImage" />
        <dc:title />
      </cc:Work>
    </rdf:RDF>
  </metadata>
  <g
     inkscape:label="Layer 1"
     inkscape:groupmode="layer"
     id="layer1"
     transform="translate(0,-185.87499)">
    <path
       d="m 9.8426485,204.66053 c 2.7516575,3.28082 6.0324805,7.51414 6.0324805,11.64163 0,3.59832 -1.799161,8.78414 -2.751658,12.38246 -1.481662,5.60915 -5.0799835,17.77995 -5.0799835,30.79741 0,11.74746 3.3866555,21.06076 6.0324805,25.39992 1.693328,2.64582 3.386656,3.91582 5.29165,3.91582 1.799161,0 2.751658,-1.16417 2.751658,-2.96333 0,-2.32832 -1.164163,-5.39748 -1.164163,-8.78414 0,-1.79916 0.529165,-4.33915 1.587495,-7.51414 1.269996,-4.33915 5.820815,-16.29828 7.831642,-22.22493 l -2.434159,-1.05833 c -2.434159,5.50332 -8.360807,19.57911 -10.477467,22.96576 -0.846664,1.37583 -1.799161,1.27 -2.539992,-0.10583 -1.164163,-2.32833 -2.11666,-5.39748 -2.11666,-11.00663 0,-10.37164 4.339153,-22.96576 6.667479,-28.46908 2.539992,-6.87915 4.550819,-8.99581 4.550819,-11.5358 0,-3.38665 -3.598322,-8.78414 -6.773312,-11.42996 -1.904994,-1.37583 -3.809988,-2.43416 -5.609149,-3.38666 z m 58.3139825,64.7698 c 0,7.30247 -3.915821,11.11246 -13.017459,11.11246 -7.514143,0 -11.535797,-2.01082 -11.535797,-6.24414 0,-5.71499 8.572473,-7.83165 15.134119,-7.83165 3.069157,0 6.244147,0.42334 9.419137,1.27 z M 91.75739,199.36888 c 4.339153,0 7.831637,3.49249 7.831637,7.83164 0,4.44499 -3.492484,7.93748 -7.831637,7.93748 -4.444986,0 -7.937475,-3.49249 -7.937475,-7.93748 0,-4.33915 3.492489,-7.83164 7.937475,-7.83164 z m -47.730683,11.2183 c 4.127487,5.82081 8.360807,7.83164 14.922453,7.83164 1.375829,0 2.751658,-0.10583 4.23332,-0.21166 1.799161,0.84666 3.598322,2.22249 3.704155,4.76248 0.211666,2.53999 0.105833,8.14914 0.105833,13.01746 -2.645825,0.52916 -6.138314,0.9525 -9.842469,0.9525 -7.40831,0 -10.689133,-2.54 -15.028286,-5.60915 l -1.587495,1.58749 c 4.762485,7.09081 9.842469,9.41914 16.93328,9.41914 3.280823,0 6.34998,-0.21167 9.630803,-0.74083 0.105833,6.24415 0.634998,14.49912 0.846664,20.95493 -2.328326,-0.42333 -4.762485,-0.635 -7.40831,-0.635 -11.429964,0 -20.531602,4.86832 -20.531602,12.69996 0,7.83165 6.984978,11.74747 16.509948,11.74747 10.900799,0 17.779944,-4.55082 17.779944,-13.54663 0,-0.74083 0,-1.79916 -0.105833,-2.85749 4.868318,2.2225 9.630803,5.60915 14.287455,10.2658 1.481662,1.48167 2.645825,2.64583 4.339153,2.64583 1.799161,0 2.645825,-1.27 2.645825,-3.06916 0,-2.53999 -1.375829,-4.55082 -3.915821,-6.66748 -3.17499,-2.75166 -9.419137,-6.98498 -17.779944,-9.3133 -0.529165,-6.98498 -1.269996,-15.98078 -1.481662,-22.96576 5.926648,-1.05833 12.488294,-2.75166 17.039113,-4.55082 2.434159,-1.05833 3.386656,-2.32833 3.386656,-3.59832 0,-2.43416 -3.598322,-3.28083 -5.185817,-3.28083 -0.634998,0 -1.587495,0.74083 -4.444986,2.01083 -2.645825,1.05833 -6.455813,2.43416 -10.794966,3.49249 0.105833,-4.97415 0.423332,-9.3133 1.481662,-12.38246 0.529165,-2.01083 0.423332,-2.85749 -0.846664,-3.70416 -0.846664,-0.52916 -1.904994,-1.05833 -2.963324,-1.37583 4.550819,-0.74083 8.784139,-1.79916 11.112465,-2.75165 0.529165,-0.21167 0.952497,-0.52917 1.269996,-0.9525 2.11666,2.96332 5.503316,4.86832 9.419137,4.86832 6.244147,0 11.32413,-5.07999 11.32413,-11.42997 0,-6.24414 -5.079983,-11.32413 -11.32413,-11.32413 -6.34998,0 -11.429964,5.07999 -11.429964,11.32413 0,0.635 0.105833,1.37583 0.211666,2.01083 -0.740831,-0.21167 -1.481662,-0.3175 -2.222493,-0.3175 -1.164163,0 -2.328326,0.9525 -5.926648,2.11666 -3.17499,0.84667 -7.831642,2.11666 -14.81662,2.11666 -4.656652,0 -7.831642,-1.26999 -11.959129,-4.02165 z"
       style="font-style:normal;font-variant:normal;font-weight:normal;font-stretch:normal;font-size:105.833px;line-height:100%;font-family:'Noto Serif CJK JP';-inkscape-font-specification:'Noto Serif CJK JP';text-align:center;letter-spacing:0px;word-spacing:0px;text-anchor:middle;fill:#000000;fill-opacity:1;stroke:none;stroke-width:0.264583px;stroke-linecap:butt;stroke-linejoin:miter;stroke-opacity:1"
       id="path9" />
  </g>
</svg>
