<?xml version="1.0" encoding="UTF-8" standalone="no"?>
<!-- Created with Inkscape (http://www.inkscape.org/) -->

<svg
   xmlns:dc="http://purl.org/dc/elements/1.1/"
   xmlns:cc="http://creativecommons.org/ns#"
   xmlns:rdf="http://www.w3.org/1999/02/22-rdf-syntax-ns#"
   xmlns:svg="http://www.w3.org/2000/svg"
   xmlns="http://www.w3.org/2000/svg"
   xmlns:sodipodi="http://sodipodi.sourceforge.net/DTD/sodipodi-0.dtd"
   xmlns:inkscape="http://www.inkscape.org/namespaces/inkscape"
   width="500"
   height="500"
   viewBox="0 0 132.29166 132.29167"
   version="1.1"
   id="svg8"
   inkscape:version="0.92.4 (5da689c313, 2019-01-14)"
   sodipodi:docname="Japanese_Hiragana_kyokashotai_WE.svg">
  <defs
     id="defs2" />
  <sodipodi:namedview
     id="base"
     pagecolor="#ffffff"
     bordercolor="#666666"
     borderopacity="1.0"
     inkscape:pageopacity="0.0"
     inkscape:pageshadow="2"
     inkscape:zoom="0.35"
     inkscape:cx="400"
     inkscape:cy="560"
     inkscape:document-units="mm"
     inkscape:current-layer="layer1"
     showgrid="false"
     units="px"
     inkscape:window-width="1440"
     inkscape:window-height="837"
     inkscape:window-x="-8"
     inkscape:window-y="-8"
     inkscape:window-maximized="1" />
  <metadata
     id="metadata5">
    <rdf:RDF>
      <cc:Work
         rdf:about="">
        <dc:format>image/svg+xml</dc:format>
        <dc:type
           rdf:resource="http://purl.org/dc/dcmitype/StillImage" />
        <dc:title></dc:title>
      </cc:Work>
    </rdf:RDF>
  </metadata>
  <g
     inkscape:label="Layer 1"
     inkscape:groupmode="layer"
     id="layer1"
     transform="translate(0,-164.70832)">
    <g
       aria-label="ゑ"
       style="font-style:normal;font-variant:normal;font-weight:normal;font-stretch:normal;font-size:141.11109924px;line-height:1.25;font-family:MHGKyokashotaiTHK;-inkscape-font-specification:MHGKyokashotaiTHK;letter-spacing:0px;word-spacing:0px;fill:#000000;fill-opacity:1;stroke:none;stroke-width:0.26458332"
       id="text12"
       transform="translate(-87.074362,62.122553)">
      <path
         d="m 202.66579,215.7099 c 0.42333,-1.12889 0.42333,-2.39889 0,-3.95111 -2.96333,-4.65667 -6.35,-8.04333 -10.44222,-9.87778 -4.09223,-1.83444 -8.46667,-2.68111 -13.26445,-2.68111 -3.95111,0 -9.17222,0.98778 -15.38111,3.24556 -3.66888,1.41111 -9.73666,4.51555 -18.20333,9.45444 -1.83444,0.98778 -3.24555,0.98778 -4.37444,-0.14111 -6.20889,-3.66889 -10.86556,-5.50333 -13.82889,-5.50333 -2.54,0 -5.50333,0.84666 -8.74889,2.25777 4.65667,-4.37444 14.95778,-12.84111 30.76222,-25.39999 6.63222,-0.28223 13.68778,-2.11667 21.02556,-5.50334 7.33777,-3.24555 11.00666,-7.62 11.00666,-13.12333 0,-3.38667 -1.41111,-5.92667 -4.37444,-7.76111 -3.66889,-2.25778 -7.62,-3.38667 -11.57111,-3.38667 -4.09223,0 -8.46667,0.84667 -13.26445,2.25778 -6.63222,1.97556 -14.39333,5.22111 -23.14222,9.87778 v -0.98778 l 37.95889,-38.1 c 0.84667,-0.70555 1.69333,-1.27 2.82222,-1.69333 1.83445,-0.70555 2.25778,-1.55222 1.12889,-2.68111 -3.38667,-2.25778 -6.20889,-3.95111 -8.89,-4.93889 -0.98778,-0.42333 -2.39889,0.14111 -3.81,1.55222 -4.37444,2.68111 -12.27666,5.36223 -23.70666,8.32556 -2.96334,0.70555 -5.92667,0.70555 -8.89,0 -1.41111,-0.42333 -1.83445,0 -0.98778,1.12889 3.66889,3.24555 6.20889,4.79777 7.62,4.37444 1.12889,-0.28222 2.96333,-1.12889 5.50333,-2.25778 6.35,-2.54 12.41778,-4.51555 18.20333,-6.06777 2.96334,-0.70556 3.95111,-0.14111 2.82223,1.69333 -10.30112,12.84111 -19.33223,22.86 -27.09334,29.77444 -2.11666,1.97556 -4.93888,4.09222 -8.18444,6.63222 -1.12889,1.83445 -2.11667,5.50334 -2.82222,11.00667 0,1.12889 0.42333,1.69333 1.12889,1.69333 1.12889,0 2.82222,-0.98778 4.93889,-2.82222 6.20888,-5.08 12.69999,-8.89 19.33222,-11.57111 6.20888,-2.54 12.13555,-3.81 17.63888,-3.81 3.24556,0 5.92667,0.70556 7.76111,2.25778 1.83445,0.98778 2.68111,2.54 2.68111,4.37444 0,3.24556 -1.41111,6.35 -4.37444,9.31333 -3.66889,3.66889 -9.45444,6.06778 -17.07444,7.19667 0.70555,-1.12889 1.12889,-2.25778 1.12889,-3.38667 0,-1.41111 -0.84667,-2.68111 -2.25778,-3.81 -1.41111,-1.12888 -3.66889,-1.69333 -6.63222,-1.69333 -3.24556,0 -5.92667,0.56445 -7.76111,1.69333 -1.83445,1.12889 -2.68111,2.82223 -2.68111,4.93889 0,1.83445 0.98777,3.38667 2.68111,4.51556 1.12889,0.70555 2.82222,1.27 5.08,1.55222 -13.97,11.85333 -23.56556,19.19111 -28.78667,22.15444 -2.11666,1.12889 -4.09222,1.97556 -6.06777,2.68111 -2.11667,1.41111 -3.52778,4.79778 -3.81,9.87778 -0.14112,2.25778 1.69333,2.11667 4.93888,-0.56444 3.10445,-2.39889 6.06778,-4.51556 9.45445,-6.06778 3.24555,-1.41111 6.20889,-2.11667 8.74889,-2.11667 2.54,0 4.79777,0.84667 6.63222,2.68111 1.83444,1.83445 3.66889,4.23334 5.50333,7.19667 1.55222,1.55222 3.38667,1.27 5.50333,-0.56444 4.79778,-5.08 10.44222,-9.17223 17.07445,-12.13556 5.92666,-2.54 11.43,-3.81 16.65111,-3.81 2.82222,0 5.50333,0.42333 7.62,1.12889 3.38666,1.12889 7.76111,4.93889 13.26444,11.57111 1.83444,0.70556 3.10444,0.70556 3.81,0 z M 148.1969,174.92879 c 0,1.83445 -1.55222,3.95111 -4.51555,6.63222 -2.54,-0.42333 -4.23333,-0.98777 -4.93889,-1.69333 -0.70556,-0.70555 -1.12889,-1.69333 -1.12889,-2.82222 0,-1.41111 0.84667,-2.54 2.25778,-3.24556 1.41111,-0.70555 2.96333,-1.12889 4.37444,-1.12889 2.54,0 3.95111,0.70556 3.95111,2.25778 z"
         style="stroke-width:0.26458332"
         id="path14"
         inkscape:connector-curvature="0" />
    </g>
  </g>
</svg>
