<?xml version="1.0" encoding="UTF-8" standalone="no"?>
<!-- Created with Inkscape (http://www.inkscape.org/) -->

<svg
   xmlns:dc="http://purl.org/dc/elements/1.1/"
   xmlns:cc="http://creativecommons.org/ns#"
   xmlns:rdf="http://www.w3.org/1999/02/22-rdf-syntax-ns#"
   xmlns:svg="http://www.w3.org/2000/svg"
   xmlns="http://www.w3.org/2000/svg"
   xmlns:sodipodi="http://sodipodi.sourceforge.net/DTD/sodipodi-0.dtd"
   xmlns:inkscape="http://www.inkscape.org/namespaces/inkscape"
   width="500"
   height="500"
   viewBox="0 0 132.29167 132.29167"
   version="1.1"
   id="svg8"
   inkscape:version="0.92.4 (5da689c313, 2019-01-14)"
   sodipodi:docname="Japanese_Hiragana_kyokashotai_WU.svg">
  <defs
     id="defs2" />
  <sodipodi:namedview
     id="base"
     pagecolor="#ffffff"
     bordercolor="#666666"
     borderopacity="1.0"
     inkscape:pageopacity="0.0"
     inkscape:pageshadow="2"
     inkscape:zoom="0.7"
     inkscape:cx="-75.799389"
     inkscape:cy="230.8096"
     inkscape:document-units="mm"
     inkscape:current-layer="layer1"
     showgrid="false"
     units="px"
     inkscape:window-width="1440"
     inkscape:window-height="837"
     inkscape:window-x="-8"
     inkscape:window-y="-8"
     inkscape:window-maximized="1" />
  <metadata
     id="metadata5">
    <rdf:RDF>
      <cc:Work
         rdf:about="">
        <dc:format>image/svg+xml</dc:format>
        <dc:type
           rdf:resource="http://purl.org/dc/dcmitype/StillImage" />
        <dc:title />
      </cc:Work>
    </rdf:RDF>
  </metadata>
  <g
     inkscape:label="Layer 1"
     inkscape:groupmode="layer"
     id="layer1"
     transform="translate(0,-164.70834)"
     style="display:inline">
    <path
       style="font-style:normal;font-variant:normal;font-weight:normal;font-stretch:normal;font-size:141.11109924px;line-height:1.25;font-family:MHGKyokashotaiTHK;-inkscape-font-specification:MHGKyokashotaiTHK;letter-spacing:0px;word-spacing:0px;fill:#000000;fill-opacity:1;stroke:none;stroke-width:0.99999994"
       d="M 88.541016 64.123047 C 86.498568 63.949742 86.567059 65.966672 88.400391 70 C 93.733724 76.933317 96.933594 88.665902 96.933594 105.19922 C 96.933594 114.79922 93.20091 137.73335 86.267578 174 C 76.667578 225.20001 71.867188 271.59908 71.867188 313.73242 C 71.867188 356.39909 74.000522 386.2673 79.867188 403.33398 C 87.867185 427.86731 95.86745 440.66602 102.80078 440.66602 C 107.06745 439.06603 109.19922 432.13387 109.19922 419.86719 C 109.19922 404.40053 109.73398 394.79987 111.33398 390.5332 C 114.00065 381.99986 121.46758 365.46705 134.26758 340.40039 C 136.93424 335.06706 135.33333 334.53424 130 338.26758 C 118.8 353.73424 110.80026 364.93387 104.93359 371.86719 C 100.66693 376.13386 97.467446 376.13386 94.800781 371.86719 C 90.534114 360.6672 88.400391 345.2 88.400391 326 C 88.400391 295.59997 89.999351 268.40026 92.666016 244.93359 C 96.932683 211.33359 102.80065 178.80076 111.33398 146.80078 C 115.60065 131.33412 118.80013 117.4659 121.4668 105.19922 C 121.4668 96.665877 111.86602 83.865764 92.666016 65.732422 C 90.832683 64.732418 89.469401 64.201822 88.541016 64.123047 z M 391.11914 73.744141 C 384.18582 75.344128 376.71849 78.010673 369.78516 82.277344 C 329.78516 89.21066 256.1845 95.611038 236.45117 96.677734 C 228.45117 97.211064 219.38516 94.01119 209.78516 88.144531 C 205.51849 88.144531 204.98568 90.276298 207.65234 94.542969 C 217.25234 104.14297 228.45208 110.54425 240.71875 113.21094 C 246.58542 113.21094 277.51967 110.0104 292.98633 107.34375 C 298.31966 115.34372 304.1862 124.40977 309.51953 134.00977 L 309.51953 200.67773 C 262.5862 209.21108 213.51953 213.47656 205.51953 213.47656 C 192.71953 211.87654 182.58607 208.67724 174.05273 202.81055 C 168.7194 201.74389 167.11849 203.87761 169.78516 209.21094 C 182.58516 224.6776 196.4513 232.67736 211.91797 234.27734 C 222.58463 230.01067 269.51954 223.07747 309.51953 217.74414 L 309.51953 377.74414 C 309.51953 383.61084 306.85286 386.81013 301.51953 388.41016 C 290.31953 389.47681 266.31927 382.5427 230.58594 367.60938 C 224.71927 367.60938 224.18451 369.74309 228.45117 374.00977 C 254.5845 388.94309 277.51862 403.87747 297.25195 417.74414 C 304.18528 425.74412 308.98568 432.14349 311.65234 436.41016 C 314.31901 440.67679 316.45274 442.27734 318.05273 442.27734 C 320.7194 442.27734 325.51836 435.34323 330.31836 421.47656 C 335.11836 407.60993 336.18594 395.87734 334.58594 386.27734 C 333.51927 377.744 332.45117 370.27707 332.45117 363.34375 L 332.45117 213.47656 C 357.51783 210.80988 404.45144 205.47631 419.38477 206.54297 L 455.65234 209.21094 C 473.78569 215.61092 472.71809 201.74323 467.38477 197.47656 C 459.38475 190.00992 447.65158 184.14312 434.85156 182.00977 C 431.65159 181.47644 420.98502 184.67631 410.31836 190.54297 C 389.51837 193.20961 350.5845 197.47627 332.45117 198.54297 L 332.45117 175.60938 C 332.45117 160.67605 334.5849 143.07785 338.85156 136.14453 L 338.85156 129.74414 C 323.3849 121.74417 313.7862 113.21095 309.51953 105.21094 C 343.11953 102.01096 394.85131 98.80964 419.91797 94.542969 C 426.85132 90.276298 425.78567 85.47786 415.65234 80.144531 C 408.71903 78.544544 400.71914 76.410786 391.11914 73.744141 z "
       transform="matrix(0.26458333,0,0,0.26458333,0,164.70834)"
       id="path3795" />
  </g>
  <g
     inkscape:groupmode="layer"
     id="layer2"
     inkscape:label="Layer 2"
     style="display:none" />
</svg>
