<?xml version="1.0" encoding="UTF-8" standalone="no"?>
<!-- Generator: Adobe Illustrator 12.0.0, SVG Export Plug-In . SVG Version: 6.00 Build 51448)  -->

<svg
   xmlns:dc="http://purl.org/dc/elements/1.1/"
   xmlns:cc="http://creativecommons.org/ns#"
   xmlns:rdf="http://www.w3.org/1999/02/22-rdf-syntax-ns#"
   xmlns:svg="http://www.w3.org/2000/svg"
   xmlns="http://www.w3.org/2000/svg"
   xmlns:sodipodi="http://sodipodi.sourceforge.net/DTD/sodipodi-0.dtd"
   xmlns:inkscape="http://www.inkscape.org/namespaces/inkscape"
   version="1.1"
   id="レイヤー_1"
   width="500"
   height="500"
   viewBox="0 0 100 99.999997"
   overflow="visible"
   enable-background="new 0 0 359.431 378.118"
   xml:space="preserve"
   sodipodi:docname="Hiragana_E_01.svg"
   style="overflow:visible"
   inkscape:version="0.92.4 (5da689c313, 2019-01-14)"><metadata
   id="metadata1976"><rdf:RDF><cc:Work
       rdf:about=""><dc:format>image/svg+xml</dc:format><dc:type
         rdf:resource="http://purl.org/dc/dcmitype/StillImage" /><dc:title /></cc:Work></rdf:RDF></metadata><defs
   id="defs1974" /><sodipodi:namedview
   pagecolor="#ffffff"
   bordercolor="#666666"
   borderopacity="1"
   objecttolerance="10"
   gridtolerance="10"
   guidetolerance="10"
   inkscape:pageopacity="0"
   inkscape:pageshadow="2"
   inkscape:window-width="1440"
   inkscape:window-height="837"
   id="namedview1972"
   showgrid="false"
   inkscape:zoom="0.88267259"
   inkscape:cx="212.6858"
   inkscape:cy="132.49783"
   inkscape:window-x="-8"
   inkscape:window-y="-8"
   inkscape:window-maximized="1"
   inkscape:current-layer="レイヤー_1" />
<path
   d="m 17.522783,16.236717 c 0,0 10.305401,3.949475 3.640871,12.712036 -6.664531,8.762562 -1.513404,14.017729 -1.72778,16.352721 -0.555378,6.047321 -6.726178,19.500046 1.666133,31.409748 8.39231,11.909703 13.761145,10.120274 12.341785,0.123479 -1.41936,-9.996796 0.06161,-12.403432 1.974737,-16.969932 1.913091,-4.566499 3.825996,-7.343387 6.849657,-10.490526 3.251735,-3.384471 3.825996,-4.072769 8.145537,-7.836932 4.17792,-3.64087 7.544249,-6.244295 10.552173,-7.219908 2.283157,-0.740503 7.404849,-2.591762 10.428695,1.481007 3.023845,4.072768 4.751625,8.022057 3.764349,13.575833 -0.913596,5.138908 -2.900367,8.515789 -9.00952,12.218306 -6.109153,3.702517 -7.437246,4.366008 -11.601281,5.06023 -4.072584,0.678671 -4.319542,3.393912 -2.098032,6.109153 1.821454,2.226138 5.36865,4.13423 10.7373,5.306818 5.368649,1.172587 8.330478,1.29588 10.243568,0.49373 1.913091,-0.80215 3.075496,-2.410894 2.962014,-3.887643 -0.185126,-2.406636 -2.406636,-3.332265 -5.245171,-3.517391 -1.176475,-0.07683 -1.172402,0.863983 -6.1708,0.431899 -4.998398,-0.432084 -5.06023,-0.431899 -6.356111,-1.974552 -1.295881,-1.542839 0.30879,-1.481007 3.949475,-3.085493 3.640685,-1.604486 4.072769,-1.542654 9.503065,-5.36865 5.430297,-3.825996 8.762562,-6.479404 10.058443,-10.243568 1.295881,-3.764349 1.519328,-7.016455 0.493731,-9.996795 -1.974738,-5.738902 -6.992389,-10.234498 -10.984072,-11.724576 -4.628147,-1.727779 -10.428695,-0.80215 -14.069565,2.159864 -2.98608,2.429406 -17.086375,16.707977 -20.11707,20.795741 -2.653409,3.579038 -4.196248,7.034782 -6.232632,11.601281 -1.686867,3.782862 -1.295881,6.726178 -4.134416,5.862381 -2.838535,-0.863983 -3.764164,-3.394098 -4.134416,-7.158262 -0.370251,-3.764163 -1.062067,-6.290761 0.431899,-13.760959 0.80215,-4.011122 0.740503,-4.998398 -0.493731,-8.639268 -1.234234,-3.64087 -2.406636,-5.24517 -1.481006,-7.836932 0.772345,-2.16264 2.503086,-3.908007 5.368649,-3.455744 1.172402,0.185126 2.591762,0.49373 4.319542,0.246772 2.5527,-0.364698 3.887642,-2.283157 3.332265,-5.121876 -0.555378,-2.83872 -2.776888,-5.615423 -4.628146,-6.664531 -1.851259,-1.049108 -4.936936,-2.283342 -9.935335,-2.221695 -1.915682,0.0237 -3.02366,0.123479 -2.344804,1.234234 z"
   id="path1969"
   inkscape:connector-curvature="0"
   style="stroke-width:0.18512584" />
</svg>