<?xml version="1.0" encoding="UTF-8" standalone="no"?>
<!-- Generator: Adobe Illustrator 12.0.0, SVG Export Plug-In . SVG Version: 6.00 Build 51448)  -->

<svg
   xmlns:dc="http://purl.org/dc/elements/1.1/"
   xmlns:cc="http://creativecommons.org/ns#"
   xmlns:rdf="http://www.w3.org/1999/02/22-rdf-syntax-ns#"
   xmlns:svg="http://www.w3.org/2000/svg"
   xmlns="http://www.w3.org/2000/svg"
   xmlns:sodipodi="http://sodipodi.sourceforge.net/DTD/sodipodi-0.dtd"
   xmlns:inkscape="http://www.inkscape.org/namespaces/inkscape"
   version="1.1"
   id="レイヤー_1"
   width="500"
   height="500"
   viewBox="0 0 100 100"
   overflow="visible"
   enable-background="new 0 0 380.094 216.914"
   xml:space="preserve"
   sodipodi:docname="Hiragana_I_01.svg"
   style="overflow:visible"
   inkscape:version="0.92.4 (5da689c313, 2019-01-14)"><metadata
   id="metadata11"><rdf:RDF><cc:Work
       rdf:about=""><dc:format>image/svg+xml</dc:format><dc:type
         rdf:resource="http://purl.org/dc/dcmitype/StillImage" /><dc:title /></cc:Work></rdf:RDF></metadata><defs
   id="defs9" /><sodipodi:namedview
   pagecolor="#ffffff"
   bordercolor="#666666"
   borderopacity="1"
   objecttolerance="10"
   gridtolerance="10"
   guidetolerance="10"
   inkscape:pageopacity="0"
   inkscape:pageshadow="2"
   inkscape:window-width="1440"
   inkscape:window-height="837"
   id="namedview7"
   showgrid="false"
   inkscape:zoom="0.76932425"
   inkscape:cx="224.53936"
   inkscape:cy="149.36751"
   inkscape:window-x="-8"
   inkscape:window-y="-8"
   inkscape:window-maximized="1"
   inkscape:current-layer="レイヤー_1" />

<path
   style="stroke-width:0.20745441"
   d="m 67.890625,27.501953 c -3.003936,-0.078 -5.321762,1.591294 -6.585937,2.855469 -2.022681,2.022681 -12.757813,16.597656 -12.757813,16.597656 0,0 -4.771296,8.106847 -8.021484,8.296875 -3.003318,0.175714 -9.439696,-3.698939 -7.019532,0.380859 2.769309,4.668347 4.304175,7.088127 6.949219,7.451172 2.645044,0.363045 6.742025,-1.40061 7.779297,-5.601562 1.037273,-4.200952 2.489908,-8.660775 4.564453,-12.1875 2.074544,-3.526725 8.299137,-11.306926 10.0625,-12.603516 1.763363,-1.29659 5.446045,-1.347485 7.001953,1.919922 2.20524,4.631005 1.243197,5.704428 -0.208984,9.853516 -1.452181,4.149088 -2.756951,11.109933 1.349609,14.677734 3.16368,2.748771 7.467261,4.667407 3.888672,6.378906 -4.335175,2.073299 -10.630958,3.009253 -12.498047,5.654297 -1.86709,2.645043 2.332057,0.67685 5.134766,-0.3125 3.526726,-1.244727 5.652775,-1.970728 9.75,-2.4375 4.097225,-0.466773 16.557422,0.205641 10.527344,-8.193359 -1.452181,-2.022681 -5.186141,-2.283627 -8.246094,-2.076172 -3.497889,0.237328 -6.5337,0.779126 -7.726563,-2.488281 -1.192863,-3.267407 -0.920634,-8.647527 0.933594,-11.462891 2.800634,-4.252816 5.553343,-10.727069 1.191406,-14.208984 -2.217168,-1.769846 -4.265997,-2.447342 -6.068359,-2.494141 z M 14.275391,44.710938 c -0.349327,0.01325 -0.919956,0.813997 -1.835938,2.910156 -1.773321,4.058223 -3.2062006,10.640657 0.216797,15.412109 3.422998,4.771452 7.827283,9.350554 9.810547,4.539063 2.080353,-5.046951 1.94412,-8.491605 1.023437,-8.96875 -1.532673,-0.794551 -2.490253,1.499503 -5.076172,-0.861328 -2.530528,-2.310421 -3.618929,-3.67461 -3.722656,-6.164063 -0.07455,-1.789294 0.476707,-6.901044 -0.416015,-6.867187 z"
   id="path2"
   inkscape:connector-curvature="0" />
</svg>