<?xml version="1.0" encoding="UTF-8" standalone="no"?>
<svg
   xmlns:dc="http://purl.org/dc/elements/1.1/"
   xmlns:cc="http://creativecommons.org/ns#"
   xmlns:rdf="http://www.w3.org/1999/02/22-rdf-syntax-ns#"
   xmlns:svg="http://www.w3.org/2000/svg"
   xmlns="http://www.w3.org/2000/svg"
   xmlns:sodipodi="http://sodipodi.sourceforge.net/DTD/sodipodi-0.dtd"
   xmlns:inkscape="http://www.inkscape.org/namespaces/inkscape"
   width="420"
   height="420"
   viewBox="0 0 111.125 111.12501"
   version="1.1"
   id="svg8"
   inkscape:version="1.0.2-2 (e86c870879, 2021-01-15)"
   sodipodi:docname="Hiragana letter Zu.svg">
  <defs
     id="defs2" />
  <sodipodi:namedview
     id="base"
     pagecolor="#ffffff"
     bordercolor="#666666"
     borderopacity="1.0"
     inkscape:pageopacity="0.0"
     inkscape:pageshadow="2"
     inkscape:zoom="0.98994949"
     inkscape:cx="345.76714"
     inkscape:cy="230.41447"
     inkscape:document-units="px"
     inkscape:current-layer="layer1"
     showgrid="false"
     units="px"
     showguides="true"
     inkscape:guide-bbox="true"
     inkscape:snap-center="true"
     inkscape:snap-object-midpoints="false"
     inkscape:window-width="1366"
     inkscape:window-height="705"
     inkscape:window-x="-8"
     inkscape:window-y="-8"
     inkscape:window-maximized="1"
     inkscape:document-rotation="0"
     inkscape:snap-bbox="true"
     inkscape:bbox-paths="true"
     inkscape:bbox-nodes="true" />
  <metadata
     id="metadata5">
    <rdf:RDF>
      <cc:Work
         rdf:about="">
        <dc:format>image/svg+xml</dc:format>
        <dc:type
           rdf:resource="http://purl.org/dc/dcmitype/StillImage" />
        <dc:title />
      </cc:Work>
    </rdf:RDF>
  </metadata>
  <g
     inkscape:label="Layer 1"
     inkscape:groupmode="layer"
     id="layer1"
     transform="translate(0,-185.87499)">
    <path
       d="m 73.448281,199.89805 c 4.127487,3.28082 6.34998,6.03248 8.46664,8.78414 2.010827,2.64582 3.17499,5.07998 4.762485,5.07998 1.587495,0 2.751658,-0.9525 2.751658,-2.75166 0,-2.01083 -1.05833,-4.02165 -3.704155,-6.45581 -2.539992,-2.32833 -6.138314,-4.44499 -10.794966,-6.45581 z m -20.002437,61.38314 c -4.868318,0 -8.572473,-4.12749 -8.572473,-10.15997 0,-5.39748 3.386656,-10.05414 8.678306,-10.05414 4.550819,0 7.937475,3.49249 7.937475,10.37164 0,7.30247 -2.751658,9.84247 -8.043308,9.84247 z m -5.397483,-55.03316 c 3.17499,0.21166 5.397483,0.3175 6.984978,0.74083 1.693328,0.52916 2.222493,1.16416 2.434159,3.28082 0.211666,2.64583 0.423332,6.24415 0.529165,10.05414 -12.488294,1.37582 -34.289892,4.65665 -38.205713,4.55081 -3.598322,0 -5.609149,-3.38665 -7.937475,-6.87914 l -2.010827,0.74083 c 0.105833,2.11666 0.317499,4.55082 1.05833,6.34998 1.164163,2.96332 6.138314,7.72581 9.630803,7.72581 2.751658,0 4.868318,-1.69333 9.630803,-2.85749 6.455813,-1.5875 17.674111,-4.02166 28.045745,-5.18582 0.211666,4.76249 0.423332,9.31331 0.529165,12.4883 -1.375829,-0.3175 -2.751658,-0.52917 -4.339153,-0.52917 -8.678306,0 -13.864123,7.19664 -13.864123,14.92245 0,10.79497 8.46664,18.94411 18.838274,14.18163 -3.809988,10.37163 -14.393288,17.88577 -27.304914,22.64826 l 1.375829,2.64582 c 20.425769,-5.07998 35.030723,-16.93328 35.030723,-36.30072 0,-6.13831 -1.375829,-11.11246 -4.444986,-14.28745 0,-5.29165 -0.105833,-11.2183 -0.105833,-16.29828 21.272433,-1.79916 29.315741,0.74083 32.702397,0.74083 2.010827,0 2.963319,-0.84667 2.963319,-2.75166 0,-3.38666 -5.503311,-5.39748 -9.207466,-5.39748 -2.222493,0 -8.995805,0.95249 -26.45825,2.85749 0.105833,-2.53999 0.105833,-4.65665 0.211666,-6.03248 0.211666,-2.64583 1.799161,-4.33916 1.799161,-6.77332 0,-2.64582 -6.561646,-4.97415 -10.900799,-4.97415 -2.751658,0 -5.29165,1.27 -7.196644,2.2225 z m 37.253216,-10.5833 c 4.23332,3.06915 6.244147,5.50331 8.46664,8.25497 2.11666,2.53999 3.280823,4.86832 4.868318,4.86832 1.481665,0 2.645825,-1.05833 2.645825,-2.75166 0,-2.01083 -1.05833,-4.02165 -3.598322,-6.34998 -2.645825,-2.43416 -6.032481,-3.91582 -11.112465,-5.92665 z"
       style="font-style:normal;font-variant:normal;font-weight:normal;font-stretch:normal;font-size:105.833px;line-height:100%;font-family:'Noto Serif CJK JP';-inkscape-font-specification:'Noto Serif CJK JP';text-align:center;letter-spacing:0px;word-spacing:0px;text-anchor:middle;fill:#000000;fill-opacity:1;stroke:none;stroke-width:0.264583px;stroke-linecap:butt;stroke-linejoin:miter;stroke-opacity:1"
       id="path9" />
  </g>
</svg>
