<?xml version="1.0" encoding="UTF-8" standalone="no"?>
<svg
   xmlns:dc="http://purl.org/dc/elements/1.1/"
   xmlns:cc="http://creativecommons.org/ns#"
   xmlns:rdf="http://www.w3.org/1999/02/22-rdf-syntax-ns#"
   xmlns:svg="http://www.w3.org/2000/svg"
   xmlns="http://www.w3.org/2000/svg"
   xmlns:sodipodi="http://sodipodi.sourceforge.net/DTD/sodipodi-0.dtd"
   xmlns:inkscape="http://www.inkscape.org/namespaces/inkscape"
   width="420"
   height="420"
   viewBox="0 0 111.125 111.12501"
   version="1.1"
   id="svg8"
   inkscape:version="1.0.2-2 (e86c870879, 2021-01-15)"
   sodipodi:docname="Katakana letter Ba.svg">
  <defs
     id="defs2" />
  <sodipodi:namedview
     id="base"
     pagecolor="#ffffff"
     bordercolor="#666666"
     borderopacity="1.0"
     inkscape:pageopacity="0.0"
     inkscape:pageshadow="2"
     inkscape:zoom="0.98994949"
     inkscape:cx="345.76714"
     inkscape:cy="230.41447"
     inkscape:document-units="px"
     inkscape:current-layer="layer1"
     showgrid="false"
     units="px"
     showguides="true"
     inkscape:guide-bbox="true"
     inkscape:snap-center="true"
     inkscape:snap-object-midpoints="false"
     inkscape:window-width="1280"
     inkscape:window-height="657"
     inkscape:window-x="-8"
     inkscape:window-y="-8"
     inkscape:window-maximized="1"
     inkscape:document-rotation="0"
     inkscape:snap-bbox="true"
     inkscape:bbox-paths="true"
     inkscape:bbox-nodes="true" />
  <metadata
     id="metadata5">
    <rdf:RDF>
      <cc:Work
         rdf:about="">
        <dc:format>image/svg+xml</dc:format>
        <dc:type
           rdf:resource="http://purl.org/dc/dcmitype/StillImage" />
        <dc:title />
      </cc:Work>
    </rdf:RDF>
  </metadata>
  <g
     inkscape:label="Layer 1"
     inkscape:groupmode="layer"
     id="layer1"
     transform="translate(0,-185.87499)">
    <path
       d="m 90.804892,230.48378 c 1.587495,0 2.539992,-1.05833 2.539992,-2.85749 0,-2.01082 -1.05833,-3.80999 -3.598322,-6.34998 -2.645825,-2.43416 -6.773312,-4.76248 -12.064962,-6.98498 l -1.481662,1.79917 c 4.656652,3.28082 7.514143,6.56164 9.842469,9.3133 2.11666,2.64582 3.17499,5.07998 4.762485,5.07998 z m 9.101638,-8.6783 c 1.58749,0 2.43416,-0.9525 2.43416,-2.75166 0,-2.11666 -1.05833,-4.12749 -3.915822,-6.45581 -2.539992,-2.2225 -6.667479,-4.23332 -12.064962,-6.13832 l -1.269996,1.79916 c 4.762485,3.28083 7.302477,5.92665 9.736636,8.57248 2.328326,2.53999 3.386656,4.97415 5.079984,4.97415 z M 42.545044,234.3996 c 0,7.40831 -20.10827,27.62242 -33.7607278,36.93572 l 1.5874948,2.11666 c 14.287456,-7.09081 28.151579,-19.15577 37.782382,-31.22073 1.904994,-2.32833 4.23332,-3.28083 4.23332,-5.29165 0,-3.17499 -5.609149,-9.31331 -10.054135,-10.47747 -2.222493,-0.635 -4.656652,-0.635 -6.244147,-0.635 l -0.740831,2.01083 c 2.751658,1.37583 7.196644,4.12749 7.196644,6.56164 z m 57.784816,28.15158 C 98.8482,249.74539 81.068256,233.34127 66.03997,225.19213 l -1.693328,2.11666 c 12.594127,9.94831 21.272433,20.95494 27.199081,35.13656 1.693328,4.23332 2.328326,6.34998 4.974151,6.34998 2.434159,0 4.233316,-2.32833 3.809986,-6.24415 z"
       style="font-style:normal;font-variant:normal;font-weight:normal;font-stretch:normal;font-size:105.833px;line-height:100%;font-family:'Noto Serif CJK JP';-inkscape-font-specification:'Noto Serif CJK JP';text-align:center;letter-spacing:0px;word-spacing:0px;text-anchor:middle;fill:#000000;fill-opacity:1;stroke:none;stroke-width:0.264583px;stroke-linecap:butt;stroke-linejoin:miter;stroke-opacity:1"
       id="path9" />
  </g>
</svg>
