<?xml version="1.0" encoding="UTF-8" standalone="no"?>
<svg
   xmlns:dc="http://purl.org/dc/elements/1.1/"
   xmlns:cc="http://creativecommons.org/ns#"
   xmlns:rdf="http://www.w3.org/1999/02/22-rdf-syntax-ns#"
   xmlns:svg="http://www.w3.org/2000/svg"
   xmlns="http://www.w3.org/2000/svg"
   xmlns:sodipodi="http://sodipodi.sourceforge.net/DTD/sodipodi-0.dtd"
   xmlns:inkscape="http://www.inkscape.org/namespaces/inkscape"
   width="420"
   height="420"
   viewBox="0 0 111.125 111.12501"
   version="1.1"
   id="svg8"
   inkscape:version="1.0.2-2 (e86c870879, 2021-01-15)"
   sodipodi:docname="Katakana letter Bu.svg">
  <defs
     id="defs2" />
  <sodipodi:namedview
     id="base"
     pagecolor="#ffffff"
     bordercolor="#666666"
     borderopacity="1.0"
     inkscape:pageopacity="0.0"
     inkscape:pageshadow="2"
     inkscape:zoom="0.98994949"
     inkscape:cx="345.76714"
     inkscape:cy="230.41447"
     inkscape:document-units="px"
     inkscape:current-layer="layer1"
     showgrid="false"
     units="px"
     showguides="true"
     inkscape:guide-bbox="true"
     inkscape:snap-center="true"
     inkscape:snap-object-midpoints="false"
     inkscape:window-width="1280"
     inkscape:window-height="657"
     inkscape:window-x="-8"
     inkscape:window-y="-8"
     inkscape:window-maximized="1"
     inkscape:document-rotation="0"
     inkscape:snap-bbox="true"
     inkscape:bbox-paths="true"
     inkscape:bbox-nodes="true" />
  <metadata
     id="metadata5">
    <rdf:RDF>
      <cc:Work
         rdf:about="">
        <dc:format>image/svg+xml</dc:format>
        <dc:type
           rdf:resource="http://purl.org/dc/dcmitype/StillImage" />
        <dc:title />
      </cc:Work>
    </rdf:RDF>
  </metadata>
  <g
     inkscape:label="Layer 1"
     inkscape:groupmode="layer"
     id="layer1"
     transform="translate(0,-185.87499)">
    <path
       d="m 88.2649,219.26549 c 1.587495,0 2.645825,-0.9525 2.645825,-2.64583 0,-2.11666 -1.05833,-4.02165 -3.704155,-6.45581 -2.645825,-2.43416 -6.667479,-4.86832 -12.170795,-6.98498 l -1.375829,1.79916 c 4.656652,3.28082 7.619976,6.56165 9.736636,9.3133 2.11666,2.64583 3.386656,4.97416 4.868318,4.97416 z m 9.419134,-7.40831 c 1.5875,0 2.434156,-0.9525 2.434156,-2.64583 0,-2.22249 -1.058326,-4.23332 -4.021646,-6.45581 -2.645827,-2.11666 -6.561648,-4.33916 -11.959131,-6.13832 l -1.375829,1.69333 c 4.974151,3.38666 7.40831,5.92665 9.842469,8.57247 2.328321,2.64583 3.280821,4.97416 5.079981,4.97416 z m -84.666397,2.22249 -2.010827,0.84666 c 0.211666,2.85749 0.529165,4.55082 1.05833,6.03248 1.05833,2.64583 6.032481,7.61998 9.207471,7.61998 2.11666,0 4.339153,-1.90499 7.196644,-2.53999 6.032481,-1.27 36.089053,-5.60915 40.745705,-5.60915 1.05833,0 1.693328,0.21166 1.269996,1.79916 -6.455813,24.76492 -25.929085,47.30735 -56.303156,62.65314 l 1.587495,2.32832 c 31.220735,-11.85329 50.164842,-31.64407 61.277307,-58.10232 1.481662,-3.49248 4.550819,-4.55081 4.550819,-6.87914 0,-2.96332 -7.725809,-8.99581 -10.900799,-8.99581 -1.799161,0 -2.434159,1.5875 -5.185817,2.11666 -5.079984,1.05833 -38.734878,4.65666 -44.661526,4.65666 -3.809988,0 -6.032481,-3.28083 -7.831642,-5.92665 z"
       style="font-style:normal;font-variant:normal;font-weight:normal;font-stretch:normal;font-size:105.833px;line-height:100%;font-family:'Noto Serif CJK JP';-inkscape-font-specification:'Noto Serif CJK JP';text-align:center;letter-spacing:0px;word-spacing:0px;text-anchor:middle;fill:#000000;fill-opacity:1;stroke:none;stroke-width:0.264583px;stroke-linecap:butt;stroke-linejoin:miter;stroke-opacity:1"
       id="path9" />
  </g>
</svg>
