<?xml version="1.0" encoding="UTF-8" standalone="no"?>
<svg
   xmlns:dc="http://purl.org/dc/elements/1.1/"
   xmlns:cc="http://creativecommons.org/ns#"
   xmlns:rdf="http://www.w3.org/1999/02/22-rdf-syntax-ns#"
   xmlns:svg="http://www.w3.org/2000/svg"
   xmlns="http://www.w3.org/2000/svg"
   xmlns:sodipodi="http://sodipodi.sourceforge.net/DTD/sodipodi-0.dtd"
   xmlns:inkscape="http://www.inkscape.org/namespaces/inkscape"
   width="420"
   height="420"
   viewBox="0 0 111.125 111.12501"
   version="1.1"
   id="svg8"
   inkscape:version="1.0.2-2 (e86c870879, 2021-01-15)"
   sodipodi:docname="Katakana letter Da.svg">
  <defs
     id="defs2" />
  <sodipodi:namedview
     id="base"
     pagecolor="#ffffff"
     bordercolor="#666666"
     borderopacity="1.0"
     inkscape:pageopacity="0.0"
     inkscape:pageshadow="2"
     inkscape:zoom="0.98994949"
     inkscape:cx="345.76714"
     inkscape:cy="230.41447"
     inkscape:document-units="px"
     inkscape:current-layer="layer1"
     showgrid="false"
     units="px"
     showguides="true"
     inkscape:guide-bbox="true"
     inkscape:snap-center="true"
     inkscape:snap-object-midpoints="false"
     inkscape:window-width="1280"
     inkscape:window-height="657"
     inkscape:window-x="-8"
     inkscape:window-y="-8"
     inkscape:window-maximized="1"
     inkscape:document-rotation="0"
     inkscape:snap-bbox="true"
     inkscape:bbox-paths="true"
     inkscape:bbox-nodes="true" />
  <metadata
     id="metadata5">
    <rdf:RDF>
      <cc:Work
         rdf:about="">
        <dc:format>image/svg+xml</dc:format>
        <dc:type
           rdf:resource="http://purl.org/dc/dcmitype/StillImage" />
        <dc:title />
      </cc:Work>
    </rdf:RDF>
  </metadata>
  <g
     inkscape:label="Layer 1"
     inkscape:groupmode="layer"
     id="layer1"
     transform="translate(0,-185.87499)">
    <path
       d="m 72.654531,222.75797 c -2.857491,7.83165 -7.937475,16.40412 -14.710787,24.87076 -6.667479,-4.23332 -15.663284,-8.36081 -24.129924,-11.64163 3.809988,-4.02165 7.40831,-8.36081 10.689133,-12.69996 1.481662,1.05833 2.857491,1.79916 3.915821,1.79916 1.481662,0 3.598322,-0.74083 5.820815,-1.27 3.704155,-0.84666 13.546624,-2.43415 17.250779,-2.75165 1.164163,0 1.693328,0.3175 1.164163,1.69332 z m -25.294087,-3.49248 c 1.05833,-1.5875 2.11666,-3.28083 3.069157,-4.86832 1.481662,-2.75166 3.069157,-3.70416 3.069157,-5.50332 0,-2.01083 -5.29165,-5.07998 -9.52497,-6.03248 -2.328326,-0.52916 -4.444986,-0.52916 -6.34998,-0.42333 l -0.529165,2.01083 c 3.704155,1.58749 6.455813,3.17499 6.455813,5.07998 0,6.13831 -17.99161,30.37407 -34.289892,42.12153 l 1.693328,2.2225 c 7.40831,-4.12749 14.499121,-9.63081 20.849101,-15.87495 8.572473,3.91582 15.980783,8.6783 22.330763,14.28745 -11.535797,13.44079 -27.093248,26.14075 -44.238194,34.81906 l 1.481662,2.43416 c 19.684938,-8.04331 35.030723,-19.15578 47.519017,-32.80823 8.043308,8.25497 9.948302,12.91162 12.911626,12.80579 2.222493,0 3.598322,-1.48166 3.492489,-3.80999 0,-4.02165 -5.397483,-9.41913 -11.853296,-14.28745 6.032481,-7.51415 11.324131,-15.55745 16.086616,-24.34159 1.269996,-2.64583 4.868318,-3.38666 4.868318,-5.39749 0,-2.75165 -6.34998,-7.30247 -8.995805,-7.30247 -1.799161,0 -2.434159,1.90499 -5.397483,2.43416 -2.857491,0.63499 -16.509948,2.43416 -21.589932,2.43416 z m 28.045745,-14.81662 c 4.550819,3.38665 7.40831,6.56164 9.52497,9.20747 2.222493,2.64582 3.492489,4.97415 4.974151,4.97415 1.587495,-0.10584 2.539992,-1.05833 2.539992,-2.64583 -0.105833,-2.22249 -1.164163,-4.02165 -3.809988,-6.45581 -2.645825,-2.43416 -6.561646,-4.76249 -11.853296,-6.77331 z m 9.101638,-6.45582 c 4.974151,3.38666 7.302477,5.82082 9.736636,8.46664 2.328328,2.53999 3.386658,4.97415 5.185818,4.97415 1.481659,-0.10583 2.434159,-1.05833 2.434159,-2.75165 0,-2.2225 -1.27,-4.23332 -4.127489,-6.45582 -2.751657,-2.01082 -6.455812,-4.02165 -11.853295,-5.92665 z"
       style="font-style:normal;font-variant:normal;font-weight:normal;font-stretch:normal;font-size:105.833px;line-height:100%;font-family:'Noto Serif CJK JP';-inkscape-font-specification:'Noto Serif CJK JP';text-align:center;letter-spacing:0px;word-spacing:0px;text-anchor:middle;fill:#000000;fill-opacity:1;stroke:none;stroke-width:0.264583px;stroke-linecap:butt;stroke-linejoin:miter;stroke-opacity:1"
       id="path9" />
  </g>
</svg>
