<?xml version="1.0" encoding="UTF-8" standalone="no"?>
<svg
   xmlns:dc="http://purl.org/dc/elements/1.1/"
   xmlns:cc="http://creativecommons.org/ns#"
   xmlns:rdf="http://www.w3.org/1999/02/22-rdf-syntax-ns#"
   xmlns:svg="http://www.w3.org/2000/svg"
   xmlns="http://www.w3.org/2000/svg"
   xmlns:sodipodi="http://sodipodi.sourceforge.net/DTD/sodipodi-0.dtd"
   xmlns:inkscape="http://www.inkscape.org/namespaces/inkscape"
   width="420"
   height="420"
   viewBox="0 0 111.125 111.12501"
   version="1.1"
   id="svg8"
   inkscape:version="1.0.2-2 (e86c870879, 2021-01-15)"
   sodipodi:docname="Katakana letter Di.svg">
  <defs
     id="defs2" />
  <sodipodi:namedview
     id="base"
     pagecolor="#ffffff"
     bordercolor="#666666"
     borderopacity="1.0"
     inkscape:pageopacity="0.0"
     inkscape:pageshadow="2"
     inkscape:zoom="0.98994949"
     inkscape:cx="345.76714"
     inkscape:cy="230.41447"
     inkscape:document-units="px"
     inkscape:current-layer="layer1"
     showgrid="false"
     units="px"
     showguides="true"
     inkscape:guide-bbox="true"
     inkscape:snap-center="true"
     inkscape:snap-object-midpoints="false"
     inkscape:window-width="1280"
     inkscape:window-height="657"
     inkscape:window-x="-8"
     inkscape:window-y="-8"
     inkscape:window-maximized="1"
     inkscape:document-rotation="0"
     inkscape:snap-bbox="true"
     inkscape:bbox-paths="true"
     inkscape:bbox-nodes="true" />
  <metadata
     id="metadata5">
    <rdf:RDF>
      <cc:Work
         rdf:about="">
        <dc:format>image/svg+xml</dc:format>
        <dc:type
           rdf:resource="http://purl.org/dc/dcmitype/StillImage" />
        <dc:title />
      </cc:Work>
    </rdf:RDF>
  </metadata>
  <g
     inkscape:label="Layer 1"
     inkscape:groupmode="layer"
     id="layer1"
     transform="translate(0,-185.87499)">
    <path
       d="m 76.834935,215.773 c 4.444986,3.17499 7.090811,6.34998 9.313304,9.10163 2.11666,2.54 3.280823,4.76249 4.974151,4.76249 1.375829,0 2.539992,-0.9525 2.539992,-2.64583 0,-2.01082 -1.164163,-4.02165 -3.704155,-6.34998 -2.645825,-2.32832 -6.561646,-4.65665 -11.747463,-6.66747 z M 61.171651,202.43804 c 4.127487,3.17499 4.339153,4.76248 2.539992,5.92665 -5.079984,3.49249 -27.093248,10.37163 -45.296524,13.75829 l 0.529165,2.64582 c 14.710787,-1.58749 22.542429,-3.06916 28.257411,-4.33915 3.17499,2.85749 3.704155,5.29165 3.809988,9.9483 0,2.32833 0,4.55082 -0.105833,6.77331 -8.572473,0.9525 -26.987415,2.96333 -33.86656,2.96333 -2.645825,0 -4.550819,-2.64583 -6.879145,-5.82082 l -1.6933288,0.635 c 0.105833,2.32833 0.423332,4.23332 0.9524975,5.29165 1.1641633,2.85749 5.3974833,7.51414 8.0433083,7.51414 2.645825,0 4.868318,-1.37583 7.937475,-2.11666 4.021654,-0.95249 17.039113,-2.85749 25.294087,-3.70415 -1.693328,19.79077 -9.52497,32.3849 -29.315741,44.55569 l 1.587495,2.01083 c 22.754095,-9.84247 33.125729,-25.61159 34.819057,-47.30735 7.619976,-0.52917 18.203276,-1.05833 22.859928,-1.05833 5.29165,0 9.207471,0.84666 11.006632,0.84666 2.222493,0 2.963324,-1.16416 2.963324,-2.85749 0,-3.06916 -5.926648,-5.18582 -10.159968,-5.18582 -2.010827,0 -2.751658,0.635 -9.419137,1.5875 -3.386656,0.42333 -10.477467,1.26999 -17.039113,1.90499 0,-1.48166 0,-2.96332 0,-4.44498 0,-4.33916 1.375829,-5.18582 1.375829,-7.30248 0,-1.37583 -3.069157,-3.91582 -6.244147,-5.71498 5.609149,-1.48167 10.689133,-3.38666 16.192449,-5.50332 2.539992,-0.9525 5.926648,-0.74083 5.926648,-2.53999 0,-1.905 -2.222493,-4.44499 -3.915821,-5.82082 -1.799161,-1.48166 -4.550819,-3.06915 -8.784139,-4.12748 z m 24.447423,6.66748 c 4.550819,3.06915 7.090811,5.60915 9.419137,8.25497 2.328326,2.53999 3.386656,4.86832 4.974149,4.86832 1.69333,0 2.64583,-1.05833 2.64583,-2.64583 0,-2.11666 -1.16417,-4.12748 -4.021657,-6.34998 -2.539992,-2.22249 -6.34998,-4.02165 -11.64163,-6.03248 z"
       style="font-style:normal;font-variant:normal;font-weight:normal;font-stretch:normal;font-size:105.833px;line-height:100%;font-family:'Noto Serif CJK JP';-inkscape-font-specification:'Noto Serif CJK JP';text-align:center;letter-spacing:0px;word-spacing:0px;text-anchor:middle;fill:#000000;fill-opacity:1;stroke:none;stroke-width:0.264583px;stroke-linecap:butt;stroke-linejoin:miter;stroke-opacity:1"
       id="path9" />
  </g>
</svg>
