<?xml version="1.0" encoding="UTF-8" standalone="no"?>
<svg
   xmlns:dc="http://purl.org/dc/elements/1.1/"
   xmlns:cc="http://creativecommons.org/ns#"
   xmlns:rdf="http://www.w3.org/1999/02/22-rdf-syntax-ns#"
   xmlns:svg="http://www.w3.org/2000/svg"
   xmlns="http://www.w3.org/2000/svg"
   xmlns:sodipodi="http://sodipodi.sourceforge.net/DTD/sodipodi-0.dtd"
   xmlns:inkscape="http://www.inkscape.org/namespaces/inkscape"
   width="420"
   height="420"
   viewBox="0 0 111.125 111.12501"
   version="1.1"
   id="svg8"
   inkscape:version="1.0.2-2 (e86c870879, 2021-01-15)"
   sodipodi:docname="Katakana letter Do.svg">
  <defs
     id="defs2" />
  <sodipodi:namedview
     id="base"
     pagecolor="#ffffff"
     bordercolor="#666666"
     borderopacity="1.0"
     inkscape:pageopacity="0.0"
     inkscape:pageshadow="2"
     inkscape:zoom="0.98994949"
     inkscape:cx="345.76714"
     inkscape:cy="230.41447"
     inkscape:document-units="px"
     inkscape:current-layer="layer1"
     showgrid="false"
     units="px"
     showguides="true"
     inkscape:guide-bbox="true"
     inkscape:snap-center="true"
     inkscape:snap-object-midpoints="false"
     inkscape:window-width="1280"
     inkscape:window-height="657"
     inkscape:window-x="-8"
     inkscape:window-y="-8"
     inkscape:window-maximized="1"
     inkscape:document-rotation="0"
     inkscape:snap-bbox="true"
     inkscape:bbox-paths="true"
     inkscape:bbox-nodes="true" />
  <metadata
     id="metadata5">
    <rdf:RDF>
      <cc:Work
         rdf:about="">
        <dc:format>image/svg+xml</dc:format>
        <dc:type
           rdf:resource="http://purl.org/dc/dcmitype/StillImage" />
        <dc:title />
      </cc:Work>
    </rdf:RDF>
  </metadata>
  <g
     inkscape:label="Layer 1"
     inkscape:groupmode="layer"
     id="layer1"
     transform="translate(0,-185.87499)">
    <path
       d="m 26.511344,206.24803 c 5.609149,0.63499 7.937475,1.26999 8.254974,4.65665 0.634998,5.29165 0.634998,16.82745 0.634998,25.29409 0,8.0433 0,25.39992 -0.846664,33.23156 -0.423332,4.02165 -1.375829,5.92665 -1.375829,8.25497 0,3.59832 1.799161,9.41914 5.29165,9.41914 2.328326,0 3.386656,-1.27 3.386656,-4.02166 0,-1.79916 -0.211666,-4.97415 -0.317499,-9.6308 -0.105833,-11.2183 0,-28.57491 0.105833,-35.87739 7.196644,2.75166 12.911626,5.82082 17.674111,9.10164 6.34998,4.86832 7.514143,8.46664 11.006632,8.46664 2.222493,0 3.386656,-1.79916 3.386656,-3.59832 0,-3.28082 -2.751658,-5.92665 -5.926648,-7.93747 -5.820815,-3.70416 -15.87495,-7.40831 -26.140751,-9.73664 0.105833,-5.82082 0.317499,-13.54662 0.846664,-18.62661 0.423332,-3.49249 2.328326,-3.91582 2.328326,-6.03248 0,-2.43416 -7.196644,-6.45581 -11.64163,-6.45581 -2.010827,0 -4.021654,0.635 -6.773312,1.26999 z m 31.961566,7.30247 c 4.656652,3.38666 7.40831,6.56165 9.630803,9.20747 2.222493,2.75166 3.386656,5.07999 5.079984,5.07999 1.587495,0 2.539992,-0.9525 2.539992,-2.64583 0,-2.22249 -1.05833,-4.33915 -3.704155,-6.66748 -2.751658,-2.32832 -6.773312,-4.55081 -12.064962,-6.77331 z m 8.995805,-8.6783 c 4.656652,3.28082 7.196644,5.82081 9.630803,8.46664 2.222493,2.64582 3.492489,5.07998 5.185817,5.07998 1.481662,0 2.434159,-0.84666 2.434159,-2.64582 0,-2.2225 -1.164163,-4.33916 -3.915821,-6.56165 -2.645825,-2.22249 -6.667479,-4.23332 -12.064962,-6.13831 z"
       style="font-style:normal;font-variant:normal;font-weight:normal;font-stretch:normal;font-size:105.833px;line-height:100%;font-family:'Noto Serif CJK JP';-inkscape-font-specification:'Noto Serif CJK JP';text-align:center;letter-spacing:0px;word-spacing:0px;text-anchor:middle;fill:#000000;fill-opacity:1;stroke:none;stroke-width:0.264583px;stroke-linecap:butt;stroke-linejoin:miter;stroke-opacity:1"
       id="path9" />
  </g>
</svg>
