<?xml version="1.0" encoding="UTF-8" standalone="no"?>
<svg
   xmlns:dc="http://purl.org/dc/elements/1.1/"
   xmlns:cc="http://creativecommons.org/ns#"
   xmlns:rdf="http://www.w3.org/1999/02/22-rdf-syntax-ns#"
   xmlns:svg="http://www.w3.org/2000/svg"
   xmlns="http://www.w3.org/2000/svg"
   xmlns:sodipodi="http://sodipodi.sourceforge.net/DTD/sodipodi-0.dtd"
   xmlns:inkscape="http://www.inkscape.org/namespaces/inkscape"
   width="420"
   height="420"
   viewBox="0 0 111.125 111.12501"
   version="1.1"
   id="svg8"
   inkscape:version="1.0.2-2 (e86c870879, 2021-01-15)"
   sodipodi:docname="Katakana letter Ga.svg">
  <defs
     id="defs2" />
  <sodipodi:namedview
     id="base"
     pagecolor="#ffffff"
     bordercolor="#666666"
     borderopacity="1.0"
     inkscape:pageopacity="0.0"
     inkscape:pageshadow="2"
     inkscape:zoom="0.98994949"
     inkscape:cx="345.76714"
     inkscape:cy="230.41447"
     inkscape:document-units="px"
     inkscape:current-layer="layer1"
     showgrid="false"
     units="px"
     showguides="true"
     inkscape:guide-bbox="true"
     inkscape:snap-center="true"
     inkscape:snap-object-midpoints="false"
     inkscape:window-width="1280"
     inkscape:window-height="657"
     inkscape:window-x="-8"
     inkscape:window-y="-8"
     inkscape:window-maximized="1"
     inkscape:document-rotation="0"
     inkscape:snap-bbox="true"
     inkscape:bbox-paths="true"
     inkscape:bbox-nodes="true" />
  <metadata
     id="metadata5">
    <rdf:RDF>
      <cc:Work
         rdf:about="">
        <dc:format>image/svg+xml</dc:format>
        <dc:type
           rdf:resource="http://purl.org/dc/dcmitype/StillImage" />
        <dc:title />
      </cc:Work>
    </rdf:RDF>
  </metadata>
  <g
     inkscape:label="Layer 1"
     inkscape:groupmode="layer"
     id="layer1"
     transform="translate(0,-185.87499)">
    <path
       d="m 42.015877,205.5072 c 1.904994,0.31749 4.868318,0.74083 6.773312,1.48166 1.587495,0.635 1.904994,1.37583 1.904994,3.38665 -0.105833,3.17499 -1.375829,11.5358 -2.645825,17.25078 -11.64163,1.48166 -23.28326,2.75166 -26.775749,2.75166 -2.857491,0 -4.444986,-3.59832 -5.926648,-6.45581 l -2.11666,0.52916 c -0.105833,2.11666 -0.211666,4.65665 0.634998,6.66748 0.846664,2.43416 5.079984,7.61998 7.831642,7.61998 2.11666,0 2.751658,-1.48166 6.032481,-2.2225 2.963324,-0.74083 12.276628,-2.43415 19.04994,-3.59832 -4.339153,14.92246 -12.276628,34.50156 -37.994047,52.81067 l 1.693328,2.11666 c 31.644067,-16.50995 40.21654,-43.39153 43.497363,-55.98566 6.561646,-0.95249 15.87495,-2.22249 21.1666,-2.22249 0.846664,0 1.269996,0.42333 1.269996,1.16416 0,6.77331 -4.23332,32.59657 -11.006632,40.95737 -1.481662,1.79916 -2.539992,1.905 -5.397483,1.05833 -2.11666,-0.74083 -7.514143,-3.17499 -11.959129,-5.18581 l -1.269996,2.01082 c 6.032481,4.44499 9.419137,6.24415 10.477467,10.15997 0.634998,2.22249 1.481662,3.17499 3.280823,3.17499 3.704155,0 8.46664,-2.85749 11.112465,-8.04331 6.34998,-11.74746 9.207471,-25.82325 11.429964,-40.7457 0.423332,-2.96333 3.069157,-2.64583 3.069157,-4.97415 0,-2.2225 -6.244147,-7.19665 -8.46664,-7.19665 -1.693328,0 -2.539992,2.32833 -5.397483,2.64583 -3.492489,0.42333 -9.948302,1.26999 -17.144946,2.11666 1.05833,-4.33915 1.904994,-9.10164 2.434159,-11.8533 0.740831,-4.02165 3.17499,-4.02165 3.17499,-6.34998 0,-2.64582 -7.090811,-6.45581 -11.112465,-6.56164 -2.010827,-0.10584 -5.397483,0.74083 -7.619976,1.26999 z m 33.654894,3.06915 c 4.656652,3.28083 7.514143,6.56165 9.630803,9.31331 2.11666,2.53999 3.280823,4.97415 5.079984,4.97415 1.481662,0 2.539992,-0.9525 2.539992,-2.75166 0,-2.11666 -1.05833,-3.91582 -3.704155,-6.34998 -2.645825,-2.43416 -6.667479,-4.86832 -12.170795,-6.98498 z m 9.313304,-6.87914 c 4.868318,3.28082 7.40831,5.82081 9.736636,8.46664 2.328326,2.53999 3.280823,5.07998 5.079979,5.07998 1.5875,0 2.54,-0.9525 2.54,-2.75166 0,-2.11666 -1.16417,-4.23332 -3.915824,-6.56164 -2.539992,-2.11666 -6.667479,-4.12749 -12.064962,-6.13832 z"
       style="font-style:normal;font-variant:normal;font-weight:normal;font-stretch:normal;font-size:105.833px;line-height:100%;font-family:'Noto Serif CJK JP';-inkscape-font-specification:'Noto Serif CJK JP';text-align:center;letter-spacing:0px;word-spacing:0px;text-anchor:middle;fill:#000000;fill-opacity:1;stroke:none;stroke-width:0.264583px;stroke-linecap:butt;stroke-linejoin:miter;stroke-opacity:1"
       id="path9" />
  </g>
</svg>
