<?xml version="1.0" encoding="UTF-8" standalone="no"?>
<svg
   xmlns:dc="http://purl.org/dc/elements/1.1/"
   xmlns:cc="http://creativecommons.org/ns#"
   xmlns:rdf="http://www.w3.org/1999/02/22-rdf-syntax-ns#"
   xmlns:svg="http://www.w3.org/2000/svg"
   xmlns="http://www.w3.org/2000/svg"
   xmlns:sodipodi="http://sodipodi.sourceforge.net/DTD/sodipodi-0.dtd"
   xmlns:inkscape="http://www.inkscape.org/namespaces/inkscape"
   width="420"
   height="420"
   viewBox="0 0 111.125 111.12501"
   version="1.1"
   id="svg8"
   inkscape:version="1.0.2-2 (e86c870879, 2021-01-15)"
   sodipodi:docname="Katakana letter Zi.svg">
  <defs
     id="defs2" />
  <sodipodi:namedview
     id="base"
     pagecolor="#ffffff"
     bordercolor="#666666"
     borderopacity="1.0"
     inkscape:pageopacity="0.0"
     inkscape:pageshadow="2"
     inkscape:zoom="0.98994949"
     inkscape:cx="345.76714"
     inkscape:cy="230.41447"
     inkscape:document-units="px"
     inkscape:current-layer="layer1"
     showgrid="false"
     units="px"
     showguides="true"
     inkscape:guide-bbox="true"
     inkscape:snap-center="true"
     inkscape:snap-object-midpoints="false"
     inkscape:window-width="1280"
     inkscape:window-height="657"
     inkscape:window-x="-8"
     inkscape:window-y="-8"
     inkscape:window-maximized="1"
     inkscape:document-rotation="0"
     inkscape:snap-bbox="true"
     inkscape:bbox-paths="true"
     inkscape:bbox-nodes="true" />
  <metadata
     id="metadata5">
    <rdf:RDF>
      <cc:Work
         rdf:about="">
        <dc:format>image/svg+xml</dc:format>
        <dc:type
           rdf:resource="http://purl.org/dc/dcmitype/StillImage" />
        <dc:title />
      </cc:Work>
    </rdf:RDF>
  </metadata>
  <g
     inkscape:label="Layer 1"
     inkscape:groupmode="layer"
     id="layer1"
     transform="translate(0,-185.87499)">
    <path
       d="m 84.454911,221.80548 c 1.481662,0 2.645825,-0.9525 2.645825,-2.75166 0,-2.01083 -1.05833,-3.80999 -3.598322,-6.45581 -2.539992,-2.43416 -6.773312,-4.86832 -12.170795,-7.19665 l -1.375829,1.905 c 4.444986,3.38665 7.302477,6.87914 9.630803,9.73663 2.11666,2.64583 3.17499,4.76249 4.868318,4.76249 z m 11.006632,-8.14914 c 1.587495,0 2.539993,-1.05833 2.539993,-2.75166 0,-2.22249 -1.164164,-4.12749 -3.809989,-6.45581 -2.645825,-2.2225 -6.773312,-4.44499 -12.170795,-6.45582 l -1.269996,1.79916 c 4.656652,3.59833 7.196644,6.24415 9.52497,8.88998 2.328326,2.64582 3.492489,4.97415 5.185817,4.97415 z m -57.043987,5.39748 c 5.609149,4.55082 7.725809,8.78414 10.689133,8.78414 1.904994,0 3.069157,-1.5875 3.069157,-3.49249 0,-3.70416 -3.17499,-7.19664 -10.371634,-10.79497 -4.550819,-1.90499 -9.313304,-3.49249 -13.334958,-4.55082 l -1.164163,2.43416 c 3.069157,1.5875 7.514143,4.55082 11.112465,7.61998 z m -11.747463,56.09149 c -3.598322,0 -6.879145,-3.59832 -9.736636,-6.98498 l -1.693328,0.9525 c 0.105833,1.58749 1.05833,5.39748 2.328326,7.09081 2.328326,3.38666 8.995805,7.83164 12.276628,7.83164 2.751658,0 3.915821,-2.75166 6.032481,-4.02165 23.389093,-12.91163 45.719856,-31.4324 57.784818,-52.599 l -2.434159,-1.5875 c -19.04994,26.45825 -57.361486,49.31818 -64.55813,49.31818 z m -1.481662,-35.45406 c 5.503316,4.12749 7.196644,7.93748 10.477467,7.93748 2.010827,0 3.069157,-1.5875 3.069157,-3.28082 0,-4.02166 -3.915821,-7.83165 -10.371634,-10.47747 -4.868318,-1.90499 -8.784139,-3.06916 -14.181622,-4.44499 l -1.05833,2.32833 c 4.444986,2.32833 8.043308,4.76248 12.064962,7.93747 z"
       style="font-style:normal;font-variant:normal;font-weight:normal;font-stretch:normal;font-size:105.833px;line-height:100%;font-family:'Noto Serif CJK JP';-inkscape-font-specification:'Noto Serif CJK JP';text-align:center;letter-spacing:0px;word-spacing:0px;text-anchor:middle;fill:#000000;fill-opacity:1;stroke:none;stroke-width:0.264583px;stroke-linecap:butt;stroke-linejoin:miter;stroke-opacity:1"
       id="path9" />
  </g>
</svg>
