<?xml version="1.0" encoding="UTF-8" standalone="no"?>
<svg
   xmlns:dc="http://purl.org/dc/elements/1.1/"
   xmlns:cc="http://creativecommons.org/ns#"
   xmlns:rdf="http://www.w3.org/1999/02/22-rdf-syntax-ns#"
   xmlns:svg="http://www.w3.org/2000/svg"
   xmlns="http://www.w3.org/2000/svg"
   xmlns:sodipodi="http://sodipodi.sourceforge.net/DTD/sodipodi-0.dtd"
   xmlns:inkscape="http://www.inkscape.org/namespaces/inkscape"
   width="420"
   height="420"
   viewBox="0 0 111.125 111.12501"
   version="1.1"
   id="svg8"
   inkscape:version="1.0.2-2 (e86c870879, 2021-01-15)"
   sodipodi:docname="Katakana letter Pi.svg">
  <defs
     id="defs2" />
  <sodipodi:namedview
     id="base"
     pagecolor="#ffffff"
     bordercolor="#666666"
     borderopacity="1.0"
     inkscape:pageopacity="0.0"
     inkscape:pageshadow="2"
     inkscape:zoom="0.98994949"
     inkscape:cx="345.76714"
     inkscape:cy="230.41447"
     inkscape:document-units="px"
     inkscape:current-layer="layer1"
     showgrid="false"
     units="px"
     showguides="true"
     inkscape:guide-bbox="true"
     inkscape:snap-center="true"
     inkscape:snap-object-midpoints="false"
     inkscape:window-width="1280"
     inkscape:window-height="657"
     inkscape:window-x="-8"
     inkscape:window-y="-8"
     inkscape:window-maximized="1"
     inkscape:document-rotation="0"
     inkscape:snap-bbox="true"
     inkscape:bbox-paths="true"
     inkscape:bbox-nodes="true" />
  <metadata
     id="metadata5">
    <rdf:RDF>
      <cc:Work
         rdf:about="">
        <dc:format>image/svg+xml</dc:format>
        <dc:type
           rdf:resource="http://purl.org/dc/dcmitype/StillImage" />
        <dc:title />
      </cc:Work>
    </rdf:RDF>
  </metadata>
  <g
     inkscape:label="Layer 1"
     inkscape:groupmode="layer"
     id="layer1"
     transform="translate(0,-185.87499)">
    <path
       d="m 63.235394,221.06465 c 0.952497,0.95249 2.010827,2.22249 2.539992,3.49249 0.846664,1.79916 0.529165,2.64582 -1.269996,4.02165 -6.773312,5.18582 -20.954934,12.17079 -35.348222,17.25078 0.423332,-10.15997 0.952497,-21.27243 1.481662,-25.82325 0.317499,-3.28083 2.328326,-3.70416 2.328326,-5.71499 0,-2.53999 -6.138314,-6.56164 -10.477467,-6.77331 -2.328326,-0.10583 -5.079984,0.74083 -7.514143,1.37583 l 0.105833,1.905 c 5.503316,0.74083 7.831642,1.37582 8.254974,4.33915 0.529165,4.97415 -0.740831,39.79321 -0.634998,49.21234 0.105833,14.92246 2.857491,18.09745 21.801598,18.09745 16.509948,0 27.093248,-1.27 31.432401,-2.54 2.010827,-0.74083 3.492489,-1.69332 3.492489,-3.80998 0,-2.43416 -3.17499,-3.59833 -8.149141,-3.59833 -3.598322,0 -10.794966,3.38666 -27.51658,3.38666 -12.69996,0 -15.028286,-0.74083 -15.028286,-11.11246 0,-2.75166 0.105833,-8.36081 0.317499,-14.71079 17.462445,-4.97415 32.384898,-11.8533 39.899041,-15.55745 4.021654,-2.11666 6.773312,-2.75166 6.773312,-4.86832 0,-2.22249 -3.069157,-6.13831 -5.926648,-8.14914 -1.481662,-0.9525 -2.963324,-1.48166 -4.974151,-1.79916 z m 21.589932,-1.27 c -4.444986,0 -7.937475,-3.49249 -7.937475,-7.83164 0,-4.33915 3.492489,-7.93748 7.937475,-7.93748 4.339153,0 7.831642,3.59833 7.831642,7.93748 0,4.33915 -3.492489,7.83164 -7.831642,7.83164 z m 0,-19.15577 c -6.244147,0 -11.429964,5.07998 -11.429964,11.32413 0,6.24415 5.185817,11.32413 11.429964,11.32413 6.244147,0 11.324132,-5.07998 11.324132,-11.32413 0,-6.24415 -5.079985,-11.32413 -11.324132,-11.32413 z"
       style="font-style:normal;font-variant:normal;font-weight:normal;font-stretch:normal;font-size:105.833px;line-height:100%;font-family:'Noto Serif CJK JP';-inkscape-font-specification:'Noto Serif CJK JP';text-align:center;letter-spacing:0px;word-spacing:0px;text-anchor:middle;fill:#000000;fill-opacity:1;stroke:none;stroke-width:0.264583px;stroke-linecap:butt;stroke-linejoin:miter;stroke-opacity:1"
       id="path9" />
  </g>
</svg>
