<?xml version="1.0" encoding="UTF-8" standalone="no"?>
<svg
   xmlns:dc="http://purl.org/dc/elements/1.1/"
   xmlns:cc="http://creativecommons.org/ns#"
   xmlns:rdf="http://www.w3.org/1999/02/22-rdf-syntax-ns#"
   xmlns:svg="http://www.w3.org/2000/svg"
   xmlns="http://www.w3.org/2000/svg"
   xmlns:sodipodi="http://sodipodi.sourceforge.net/DTD/sodipodi-0.dtd"
   xmlns:inkscape="http://www.inkscape.org/namespaces/inkscape"
   width="420"
   height="420"
   viewBox="0 0 111.125 111.12501"
   version="1.1"
   id="svg8"
   inkscape:version="1.0.2-2 (e86c870879, 2021-01-15)"
   sodipodi:docname="Katakana letter Pu.svg">
  <defs
     id="defs2" />
  <sodipodi:namedview
     id="base"
     pagecolor="#ffffff"
     bordercolor="#666666"
     borderopacity="1.0"
     inkscape:pageopacity="0.0"
     inkscape:pageshadow="2"
     inkscape:zoom="0.98994949"
     inkscape:cx="345.76714"
     inkscape:cy="230.41447"
     inkscape:document-units="px"
     inkscape:current-layer="layer1"
     showgrid="false"
     units="px"
     showguides="true"
     inkscape:guide-bbox="true"
     inkscape:snap-center="true"
     inkscape:snap-object-midpoints="false"
     inkscape:window-width="1280"
     inkscape:window-height="657"
     inkscape:window-x="-8"
     inkscape:window-y="-8"
     inkscape:window-maximized="1"
     inkscape:document-rotation="0"
     inkscape:snap-bbox="true"
     inkscape:bbox-paths="true"
     inkscape:bbox-nodes="true" />
  <metadata
     id="metadata5">
    <rdf:RDF>
      <cc:Work
         rdf:about="">
        <dc:format>image/svg+xml</dc:format>
        <dc:type
           rdf:resource="http://purl.org/dc/dcmitype/StillImage" />
        <dc:title />
      </cc:Work>
    </rdf:RDF>
  </metadata>
  <g
     inkscape:label="Layer 1"
     inkscape:groupmode="layer"
     id="layer1"
     transform="translate(0,-185.87499)">
    <path
       d="m 88.688233,217.46632 c 6.244151,0 11.112461,-4.86831 11.112461,-11.21829 0,-6.13832 -4.86831,-11.11247 -11.112461,-11.11247 -6.244147,0 -11.218298,4.97415 -11.218298,11.11247 0,6.34998 4.974151,11.21829 11.218298,11.21829 z m 0,-18.73244 c 4.23332,0 7.619971,3.38666 7.619971,7.51415 0,4.33915 -3.386651,7.72581 -7.619971,7.72581 -4.23332,0 -7.619976,-3.38666 -7.619976,-7.72581 0,-4.12749 3.386656,-7.51415 7.619976,-7.51415 z m -75.353096,15.34579 -2.010827,0.84666 c 0.211666,2.85749 0.529165,4.55082 1.05833,6.03248 1.05833,2.64583 6.032481,7.61998 9.207471,7.61998 2.11666,0 4.339153,-1.90499 7.196644,-2.53999 6.032481,-1.27 36.089053,-5.60915 40.745705,-5.60915 1.05833,0 1.693328,0.21166 1.269996,1.79916 -6.455813,24.76492 -25.929085,47.30735 -56.303156,62.65314 l 1.587495,2.32832 c 31.220735,-11.85329 50.164842,-31.64407 61.277307,-58.10232 1.481662,-3.49248 4.550819,-4.55081 4.550819,-6.87914 0,-2.96332 -7.725809,-8.99581 -10.900799,-8.99581 -1.799161,0 -2.434159,1.5875 -5.185817,2.11666 -5.079984,1.05833 -38.734878,4.65666 -44.661526,4.65666 -3.809988,0 -6.032481,-3.28083 -7.831642,-5.92665 z"
       style="font-style:normal;font-variant:normal;font-weight:normal;font-stretch:normal;font-size:105.833px;line-height:100%;font-family:'Noto Serif CJK JP';-inkscape-font-specification:'Noto Serif CJK JP';text-align:center;letter-spacing:0px;word-spacing:0px;text-anchor:middle;fill:#000000;fill-opacity:1;stroke:none;stroke-width:0.264583px;stroke-linecap:butt;stroke-linejoin:miter;stroke-opacity:1"
       id="path9" />
  </g>
</svg>
