<?xml version="1.0" encoding="UTF-8" standalone="no"?>
<!-- Created with Inkscape (http://www.inkscape.org/) -->

<svg
   xmlns:dc="http://purl.org/dc/elements/1.1/"
   xmlns:cc="http://creativecommons.org/ns#"
   xmlns:rdf="http://www.w3.org/1999/02/22-rdf-syntax-ns#"
   xmlns:svg="http://www.w3.org/2000/svg"
   xmlns="http://www.w3.org/2000/svg"
   xmlns:sodipodi="http://sodipodi.sourceforge.net/DTD/sodipodi-0.dtd"
   xmlns:inkscape="http://www.inkscape.org/namespaces/inkscape"
   width="500"
   height="500"
   viewBox="0 0 132.29166 132.29167"
   version="1.1"
   id="svg8"
   inkscape:version="0.92.4 (5da689c313, 2019-01-14)"
   sodipodi:docname="Japanese_Katakana_kyokashotai_WU.svg">
  <defs
     id="defs2" />
  <sodipodi:namedview
     id="base"
     pagecolor="#ffffff"
     bordercolor="#666666"
     borderopacity="1.0"
     inkscape:pageopacity="0.0"
     inkscape:pageshadow="2"
     inkscape:zoom="0.49497475"
     inkscape:cx="248.76902"
     inkscape:cy="221.95198"
     inkscape:document-units="mm"
     inkscape:current-layer="layer1"
     showgrid="false"
     units="px"
     inkscape:window-width="1440"
     inkscape:window-height="837"
     inkscape:window-x="-8"
     inkscape:window-y="-8"
     inkscape:window-maximized="1" />
  <metadata
     id="metadata5">
    <rdf:RDF>
      <cc:Work
         rdf:about="">
        <dc:format>image/svg+xml</dc:format>
        <dc:type
           rdf:resource="http://purl.org/dc/dcmitype/StillImage" />
        <dc:title></dc:title>
      </cc:Work>
    </rdf:RDF>
  </metadata>
  <g
     inkscape:label="Layer 1"
     inkscape:groupmode="layer"
     id="layer1"
     transform="translate(0,-164.70832)">
    <path
       inkscape:connector-curvature="0"
       id="path14"
       style="font-style:normal;font-variant:normal;font-weight:normal;font-stretch:normal;font-size:141.1111145px;line-height:1.25;font-family:MHGKyokashotaiTHK;-inkscape-font-specification:MHGKyokashotaiTHK;letter-spacing:0px;word-spacing:0px;fill:#000000;fill-opacity:1;stroke:none;stroke-width:0.34395832"
       d="m 83.148859,177.10492 c -0.917222,0 -2.201334,0.3669 -3.485445,1.46756 -0.550333,0.3669 -1.651,1.10067 -3.668889,1.28411 -11.373556,2.20133 -23.297444,3.85233 -35.771667,5.87023 -2.935111,0 -5.686778,-0.55034 -8.62189,-1.46756 -1.834444,-0.91722 -2.384777,-0.55034 -1.467554,1.46756 4.402666,4.21922 8.071555,6.42056 11.557,6.42056 0.366888,0 3.118555,-0.55034 7.888111,-1.46756 2.384777,-0.55034 5.136444,-0.73378 8.438444,-0.73378 3.485445,4.40267 5.136445,9.906 5.136445,16.51 v 4.21922 c -16.693445,2.38478 -28.067,4.03578 -33.753779,5.13645 -4.769555,0.91722 -8.621888,1.46755 -11.373555,1.46755 -3.302,0 -6.420556,-0.73378 -9.3556675,-2.20132 -1.8344443,-0.91723 -2.3847772,-0.55035 -1.4675557,1.46754 4.7695552,6.23711 9.3556672,9.17223 13.5748902,9.17223 2.935111,-0.91723 6.237111,-1.651 10.089444,-2.75167 8.621889,-2.20133 19.445111,-4.58611 32.286223,-6.42056 l 0.733778,36.50546 c 0.183445,8.62188 -1.467555,12.8411 -4.402667,12.8411 -1.834444,0 -4.219223,-0.55033 -7.154334,-1.46756 -4.219222,-1.46754 -8.255,-2.75166 -12.107333,-4.21922 -2.935111,0 -3.118556,0.73378 -0.733778,2.20133 7.704667,4.76956 12.841111,8.255 15.776222,10.63979 1.834445,2.01788 3.302,4.40266 4.219223,7.15433 1.467556,2.93511 2.935112,4.40267 4.402667,4.40267 1.467556,0 3.118556,-2.20134 4.953,-6.42056 2.384777,-5.68678 3.668889,-11.00667 3.668889,-15.77623 0,-6.78744 -0.550333,-22.19677 -1.467556,-46.59488 22.013334,-2.01789 37.239225,-2.38477 45.861115,-1.46756 5.68677,0.55033 8.62189,-0.55033 8.62189,-2.93511 0,-1.28412 -1.46756,-2.75166 -4.40268,-4.21922 -3.85232,-2.0179 -8.07155,-2.93511 -12.8411,-2.93511 -0.91722,0 -1.83445,0.55033 -2.93511,1.46755 -0.36689,0.55033 -1.651,0.91722 -3.48545,1.46756 -10.089442,0.91722 -20.362331,1.83444 -30.818665,2.9351 v -7.8881 c 0,-4.76956 -2.751667,-9.17223 -7.888111,-13.02456 11.006667,-1.46755 19.078223,-2.56822 24.398111,-3.48544 5.136446,-0.91723 7.888112,-2.38478 7.888112,-4.40267 0,-2.75167 -4.219222,-4.21923 -12.290778,-4.21923 z"
       sodipodi:nodetypes="scccccsccsccsccccccscccccscsccscscccsccss" />
  </g>
</svg>
