<?xml version="1.0" encoding="UTF-8" standalone="no"?>
<!-- Created with Inkscape (http://www.inkscape.org/) -->

<svg
   xmlns:dc="http://purl.org/dc/elements/1.1/"
   xmlns:cc="http://creativecommons.org/ns#"
   xmlns:rdf="http://www.w3.org/1999/02/22-rdf-syntax-ns#"
   xmlns:svg="http://www.w3.org/2000/svg"
   xmlns="http://www.w3.org/2000/svg"
   xmlns:sodipodi="http://sodipodi.sourceforge.net/DTD/sodipodi-0.dtd"
   xmlns:inkscape="http://www.inkscape.org/namespaces/inkscape"
   id="svg2"
   sodipodi:version="0.32"
   inkscape:version="0.92.4 (5da689c313, 2019-01-14)"
   width="500"
   height="500"
   version="1.0"
   sodipodi:docname="Katakana_obsolete_ye.svg"
   inkscape:output_extension="org.inkscape.output.svg.inkscape">
  <metadata
     id="metadata7">
    <rdf:RDF>
      <cc:Work
         rdf:about="">
        <dc:format>image/svg+xml</dc:format>
        <dc:type
           rdf:resource="http://purl.org/dc/dcmitype/StillImage" />
        <dc:title></dc:title>
      </cc:Work>
    </rdf:RDF>
  </metadata>
  <defs
     id="defs5" />
  <sodipodi:namedview
     inkscape:window-height="781"
     inkscape:window-width="1280"
     inkscape:pageshadow="2"
     inkscape:pageopacity="0.0"
     guidetolerance="10.0"
     gridtolerance="10.0"
     objecttolerance="10.0"
     borderopacity="1.0"
     bordercolor="#666666"
     pagecolor="#ffffff"
     id="base"
     inkscape:zoom="0.38476563"
     inkscape:cx="11.810658"
     inkscape:cy="142.55674"
     inkscape:window-x="-4"
     inkscape:window-y="-4"
     inkscape:current-layer="svg2"
     showgrid="false"
     inkscape:window-maximized="1" />
  <path
     style="fill:#000000;stroke-width:7.81251287"
     d="m 84.542669,397.22493 c -23.13019,-15.82892 -30.75555,-25.94373 -30.91562,-41.00862 -0.0879,-8.27264 2.64286,-7.48091 10.29575,2.98505 9.55836,13.07183 16.65178,13.60114 86.206441,6.43273 41.68509,-4.29613 77.32407,-9.34414 79.19775,-11.21782 5.88492,-5.88493 8.04717,-129.80565 2.36489,-135.53513 -2.97526,-3 -15.27997,1.50938 -27.34379,10.02083 -23.71936,16.73486 -100.18691,56.54181 -108.614531,56.54181 -2.8426,0 20.771041,-17.00348 52.474751,-37.7855 56.62276,-37.11665 113.0493,-91.12547 131.79043,-126.14358 7.6385,-14.27268 7.42811,-19.05698 -1.07498,-24.445141 -7.89848,-5.00504 -6.56628,-6.72959 5.26758,-6.81897 17.81881,-0.13458 50.56653,20.312891 50.56653,31.573421 0,4.05323 -3.82921,7.36951 -8.50936,7.36951 -4.68014,0 -23.8212,15.75473 -42.53567,35.0105 -29.74598,30.60637 -32.36095,35.95041 -20.78756,42.48227 10.60255,5.98394 11.29414,9.43547 3.47311,17.33333 -6.13498,6.19524 -9.76565,32.51694 -9.76565,70.79917 v 60.9376 h 50.27274 c 27.65002,0 59.6651,-3.57097 71.14464,-7.93548 16.89486,-6.42341 26.03256,-4.74602 47.95555,8.80314 32.54598,20.11452 24.6399,33.40004 -13.38616,22.49432 -61.86386,-17.74233 -267.13642,-1.27497 -291.82191,23.41052 -10.58084,10.58084 -13.71258,10.12267 -36.254931,-5.30396 z"
     id="path2161"
     inkscape:connector-curvature="0" />
</svg>
