<?xml version="1.0" encoding="UTF-8" standalone="no"?>
<svg
   xmlns:dc="http://purl.org/dc/elements/1.1/"
   xmlns:cc="http://creativecommons.org/ns#"
   xmlns:rdf="http://www.w3.org/1999/02/22-rdf-syntax-ns#"
   xmlns:svg="http://www.w3.org/2000/svg"
   xmlns="http://www.w3.org/2000/svg"
   xmlns:sodipodi="http://sodipodi.sourceforge.net/DTD/sodipodi-0.dtd"
   xmlns:inkscape="http://www.inkscape.org/namespaces/inkscape"
   width="420"
   height="420"
   viewBox="0 0 111.125 111.12501"
   version="1.1"
   id="svg8"
   inkscape:version="1.0.2-2 (e86c870879, 2021-01-15)"
   sodipodi:docname="Katakana letter Za.svg">
  <defs
     id="defs2" />
  <sodipodi:namedview
     id="base"
     pagecolor="#ffffff"
     bordercolor="#666666"
     borderopacity="1.0"
     inkscape:pageopacity="0.0"
     inkscape:pageshadow="2"
     inkscape:zoom="0.98994949"
     inkscape:cx="345.76714"
     inkscape:cy="230.41447"
     inkscape:document-units="px"
     inkscape:current-layer="layer1"
     showgrid="false"
     units="px"
     showguides="true"
     inkscape:guide-bbox="true"
     inkscape:snap-center="true"
     inkscape:snap-object-midpoints="false"
     inkscape:window-width="1280"
     inkscape:window-height="657"
     inkscape:window-x="-8"
     inkscape:window-y="-8"
     inkscape:window-maximized="1"
     inkscape:document-rotation="0"
     inkscape:snap-bbox="true"
     inkscape:bbox-paths="true"
     inkscape:bbox-nodes="true" />
  <metadata
     id="metadata5">
    <rdf:RDF>
      <cc:Work
         rdf:about="">
        <dc:format>image/svg+xml</dc:format>
        <dc:type
           rdf:resource="http://purl.org/dc/dcmitype/StillImage" />
        <dc:title />
      </cc:Work>
    </rdf:RDF>
  </metadata>
  <g
     inkscape:label="Layer 1"
     inkscape:groupmode="layer"
     id="layer1"
     transform="translate(0,-185.87499)">
    <path
       d="m 78.220402,205.71886 c 4.339153,3.38666 6.879145,6.87915 8.889972,9.6308 2.010827,2.75166 3.069157,4.97416 4.762485,5.07999 1.481662,0.10583 2.539992,-0.9525 2.645825,-2.53999 0,-2.11666 -0.846664,-3.70416 -3.386656,-6.34998 -2.434159,-2.64583 -6.244147,-5.29165 -11.429964,-7.61998 z m -21.272433,0.10583 c 4.550819,0.635 7.302477,1.16417 7.619976,3.38666 0.423332,4.12749 0.423332,10.68913 0.317499,20.2141 -6.984978,0.74083 -15.663284,1.5875 -22.436596,2.2225 0,-4.65666 0.105833,-8.88998 0.317499,-10.79497 0.211666,-3.38666 1.481662,-3.49249 1.481662,-5.71498 0,-2.85749 -6.34998,-5.82082 -9.736636,-5.82082 -1.799161,0 -4.127487,0.52917 -5.926648,1.16417 v 2.11666 c 4.444986,0.63499 6.879145,1.26999 7.40831,3.38665 0.634998,2.53999 0.740831,10.79497 0.740831,16.19245 -6.34998,0.74083 -16.509948,1.905 -20.531602,1.905 -2.645825,0 -4.550819,-3.28083 -6.4558132,-6.34998 l -1.904994,0.63499 c -0.105833,1.79916 0.105833,4.55082 0.634998,5.82082 1.05833,2.32832 5.3974832,7.30248 8.0433082,7.30248 2.328326,0 4.656652,-1.48167 7.40831,-2.11666 3.17499,-0.84667 7.40831,-1.5875 12.805793,-2.2225 -0.211666,11.2183 -1.693328,14.28746 -1.693328,17.88578 0,2.96332 1.587495,7.51414 4.339153,7.51414 2.222493,0 3.069157,-1.58749 3.069157,-5.82081 0,-3.06916 -0.105833,-11.74747 0,-20.21411 6.667479,-0.74083 14.81662,-1.48166 22.436596,-2.01082 -0.105833,12.27663 -1.269996,24.34159 -6.455813,32.49073 -5.820815,9.10164 -15.028286,14.81662 -23.28326,18.73244 l 1.481662,2.43416 c 12.911626,-4.65665 22.330763,-11.74746 26.987415,-18.41494 6.879145,-9.31331 7.302477,-22.54243 7.725809,-35.66572 3.280823,-0.10584 6.34998,-0.21167 8.995805,-0.21167 7.937475,0 11.853296,0.9525 14.393288,0.9525 1.904994,0 2.645825,-0.635 2.645825,-2.43416 0,-3.28083 -5.820815,-5.29165 -10.054135,-5.29165 -2.328326,0 -3.386656,0.74083 -15.87495,1.79916 0.105833,-4.55082 0.317499,-10.05414 0.423332,-13.96996 0.211666,-4.33915 2.11666,-3.80999 2.11666,-6.03248 0,-2.32832 -5.820815,-6.66748 -10.689133,-6.66748 -1.904994,0 -4.127487,0.635 -6.34998,1.37583 z m 29.844906,-8.0433 c 4.550819,3.38665 6.773312,6.24414 9.101638,8.88997 2.11666,2.64582 3.17499,4.97415 4.762487,5.07998 1.58749,0 2.64582,-0.95249 2.64582,-2.64582 0.10584,-2.11666 -0.95249,-4.02166 -3.492486,-6.34998 -2.539992,-2.53999 -6.244147,-4.65665 -11.64163,-6.77331 z"
       style="font-style:normal;font-variant:normal;font-weight:normal;font-stretch:normal;font-size:105.833px;line-height:100%;font-family:'Noto Serif CJK JP';-inkscape-font-specification:'Noto Serif CJK JP';text-align:center;letter-spacing:0px;word-spacing:0px;text-anchor:middle;fill:#000000;fill-opacity:1;stroke:none;stroke-width:0.264583px;stroke-linecap:butt;stroke-linejoin:miter;stroke-opacity:1"
       id="path9" />
  </g>
</svg>
